M48
; DRILL file {KiCad 8.0.3} date 2024-07-05T23:42:43-0700
; FORMAT={-:-/ absolute / inch / decimal}
; #@! TF.CreationDate,2024-07-05T23:42:43-07:00
; #@! TF.GenerationSoftware,Kicad,Pcbnew,8.0.3
; #@! TF.FileFunction,Plated,1,2,PTH
FMAT,2
INCH
; #@! TA.AperFunction,Plated,PTH,ViaDrill
T1C0.0157
; #@! TA.AperFunction,Plated,PTH,ComponentDrill
T2C0.0276
; #@! TA.AperFunction,Plated,PTH,ComponentDrill
T3C0.0394
%
G90
G05
T1
X3.937Y-3.3268
X3.937Y-3.7205
X3.9961Y-3.2677
X4.0354Y-3.4055
X4.0354Y-3.563
X4.0551Y-3.8386
X4.0945Y-3.5039
X4.2323Y-3.7795
X4.252Y-3.6024
X4.2717Y-3.4331
X4.311Y-3.4646
X4.311Y-3.5827
X4.3307Y-3.4055
X4.4663Y-3.5895
X4.4685Y-3.3858
X4.4882Y-3.1693
X4.5079Y-3.6417
X4.5472Y-3.6112
X4.5489Y-3.478
X4.5669Y-3.7598
X4.5669Y-3.8189
X4.6063Y-3.3661
X4.685Y-3.878
X4.7638Y-3.5252
X4.8031Y-3.6417
X4.8622Y-3.6811
X5.0Y-3.3465
X5.1378Y-3.4252
T3
X4.3685Y-3.7189
X4.3685Y-3.8189
X4.4685Y-3.7189
X4.4685Y-3.8189
X5.2165Y-3.4039
X5.2165Y-3.5039
X5.4744Y-3.2579
X5.4744Y-3.3563
X5.4744Y-3.6122
X5.4744Y-3.7106
T2
G00X3.7589Y-3.2539
M15
G01X3.688Y-3.2539
M16
G05
G00X3.7589Y-3.7146
M15
G01X3.688Y-3.7146
M16
G05
M30
