%TF.GenerationSoftware,KiCad,Pcbnew,8.0.3*%
%TF.CreationDate,2024-07-05T22:26:41-07:00*%
%TF.ProjectId,can-opener,63616e2d-6f70-4656-9e65-722e6b696361,rev?*%
%TF.SameCoordinates,Original*%
%TF.FileFunction,Legend,Bot*%
%TF.FilePolarity,Positive*%
%FSLAX46Y46*%
G04 Gerber Fmt 4.6, Leading zero omitted, Abs format (unit mm)*
G04 Created by KiCad (PCBNEW 8.0.3) date 2024-07-05 22:26:41*
%MOMM*%
%LPD*%
G01*
G04 APERTURE LIST*
%ADD10C,0.150000*%
%ADD11C,0.120000*%
G04 APERTURE END LIST*
D10*
X126739285Y-91759819D02*
X126739285Y-92569342D01*
X126739285Y-92569342D02*
X126691666Y-92664580D01*
X126691666Y-92664580D02*
X126644047Y-92712200D01*
X126644047Y-92712200D02*
X126548809Y-92759819D01*
X126548809Y-92759819D02*
X126358333Y-92759819D01*
X126358333Y-92759819D02*
X126263095Y-92712200D01*
X126263095Y-92712200D02*
X126215476Y-92664580D01*
X126215476Y-92664580D02*
X126167857Y-92569342D01*
X126167857Y-92569342D02*
X126167857Y-91759819D01*
X125786904Y-91759819D02*
X125167857Y-91759819D01*
X125167857Y-91759819D02*
X125501190Y-92140771D01*
X125501190Y-92140771D02*
X125358333Y-92140771D01*
X125358333Y-92140771D02*
X125263095Y-92188390D01*
X125263095Y-92188390D02*
X125215476Y-92236009D01*
X125215476Y-92236009D02*
X125167857Y-92331247D01*
X125167857Y-92331247D02*
X125167857Y-92569342D01*
X125167857Y-92569342D02*
X125215476Y-92664580D01*
X125215476Y-92664580D02*
X125263095Y-92712200D01*
X125263095Y-92712200D02*
X125358333Y-92759819D01*
X125358333Y-92759819D02*
X125644047Y-92759819D01*
X125644047Y-92759819D02*
X125739285Y-92712200D01*
X125739285Y-92712200D02*
X125786904Y-92664580D01*
X124548809Y-91759819D02*
X124453571Y-91759819D01*
X124453571Y-91759819D02*
X124358333Y-91807438D01*
X124358333Y-91807438D02*
X124310714Y-91855057D01*
X124310714Y-91855057D02*
X124263095Y-91950295D01*
X124263095Y-91950295D02*
X124215476Y-92140771D01*
X124215476Y-92140771D02*
X124215476Y-92378866D01*
X124215476Y-92378866D02*
X124263095Y-92569342D01*
X124263095Y-92569342D02*
X124310714Y-92664580D01*
X124310714Y-92664580D02*
X124358333Y-92712200D01*
X124358333Y-92712200D02*
X124453571Y-92759819D01*
X124453571Y-92759819D02*
X124548809Y-92759819D01*
X124548809Y-92759819D02*
X124644047Y-92712200D01*
X124644047Y-92712200D02*
X124691666Y-92664580D01*
X124691666Y-92664580D02*
X124739285Y-92569342D01*
X124739285Y-92569342D02*
X124786904Y-92378866D01*
X124786904Y-92378866D02*
X124786904Y-92140771D01*
X124786904Y-92140771D02*
X124739285Y-91950295D01*
X124739285Y-91950295D02*
X124691666Y-91855057D01*
X124691666Y-91855057D02*
X124644047Y-91807438D01*
X124644047Y-91807438D02*
X124548809Y-91759819D01*
X123263095Y-92759819D02*
X123834523Y-92759819D01*
X123548809Y-92759819D02*
X123548809Y-91759819D01*
X123548809Y-91759819D02*
X123644047Y-91902676D01*
X123644047Y-91902676D02*
X123739285Y-91997914D01*
X123739285Y-91997914D02*
X123834523Y-92045533D01*
X134284819Y-88880952D02*
X133808628Y-88547619D01*
X134284819Y-88309524D02*
X133284819Y-88309524D01*
X133284819Y-88309524D02*
X133284819Y-88690476D01*
X133284819Y-88690476D02*
X133332438Y-88785714D01*
X133332438Y-88785714D02*
X133380057Y-88833333D01*
X133380057Y-88833333D02*
X133475295Y-88880952D01*
X133475295Y-88880952D02*
X133618152Y-88880952D01*
X133618152Y-88880952D02*
X133713390Y-88833333D01*
X133713390Y-88833333D02*
X133761009Y-88785714D01*
X133761009Y-88785714D02*
X133808628Y-88690476D01*
X133808628Y-88690476D02*
X133808628Y-88309524D01*
X133284819Y-89214286D02*
X133284819Y-89833333D01*
X133284819Y-89833333D02*
X133665771Y-89500000D01*
X133665771Y-89500000D02*
X133665771Y-89642857D01*
X133665771Y-89642857D02*
X133713390Y-89738095D01*
X133713390Y-89738095D02*
X133761009Y-89785714D01*
X133761009Y-89785714D02*
X133856247Y-89833333D01*
X133856247Y-89833333D02*
X134094342Y-89833333D01*
X134094342Y-89833333D02*
X134189580Y-89785714D01*
X134189580Y-89785714D02*
X134237200Y-89738095D01*
X134237200Y-89738095D02*
X134284819Y-89642857D01*
X134284819Y-89642857D02*
X134284819Y-89357143D01*
X134284819Y-89357143D02*
X134237200Y-89261905D01*
X134237200Y-89261905D02*
X134189580Y-89214286D01*
X133284819Y-90452381D02*
X133284819Y-90547619D01*
X133284819Y-90547619D02*
X133332438Y-90642857D01*
X133332438Y-90642857D02*
X133380057Y-90690476D01*
X133380057Y-90690476D02*
X133475295Y-90738095D01*
X133475295Y-90738095D02*
X133665771Y-90785714D01*
X133665771Y-90785714D02*
X133903866Y-90785714D01*
X133903866Y-90785714D02*
X134094342Y-90738095D01*
X134094342Y-90738095D02*
X134189580Y-90690476D01*
X134189580Y-90690476D02*
X134237200Y-90642857D01*
X134237200Y-90642857D02*
X134284819Y-90547619D01*
X134284819Y-90547619D02*
X134284819Y-90452381D01*
X134284819Y-90452381D02*
X134237200Y-90357143D01*
X134237200Y-90357143D02*
X134189580Y-90309524D01*
X134189580Y-90309524D02*
X134094342Y-90261905D01*
X134094342Y-90261905D02*
X133903866Y-90214286D01*
X133903866Y-90214286D02*
X133665771Y-90214286D01*
X133665771Y-90214286D02*
X133475295Y-90261905D01*
X133475295Y-90261905D02*
X133380057Y-90309524D01*
X133380057Y-90309524D02*
X133332438Y-90357143D01*
X133332438Y-90357143D02*
X133284819Y-90452381D01*
X134284819Y-91738095D02*
X134284819Y-91166667D01*
X134284819Y-91452381D02*
X133284819Y-91452381D01*
X133284819Y-91452381D02*
X133427676Y-91357143D01*
X133427676Y-91357143D02*
X133522914Y-91261905D01*
X133522914Y-91261905D02*
X133570533Y-91166667D01*
X131019580Y-85380952D02*
X131067200Y-85333333D01*
X131067200Y-85333333D02*
X131114819Y-85190476D01*
X131114819Y-85190476D02*
X131114819Y-85095238D01*
X131114819Y-85095238D02*
X131067200Y-84952381D01*
X131067200Y-84952381D02*
X130971961Y-84857143D01*
X130971961Y-84857143D02*
X130876723Y-84809524D01*
X130876723Y-84809524D02*
X130686247Y-84761905D01*
X130686247Y-84761905D02*
X130543390Y-84761905D01*
X130543390Y-84761905D02*
X130352914Y-84809524D01*
X130352914Y-84809524D02*
X130257676Y-84857143D01*
X130257676Y-84857143D02*
X130162438Y-84952381D01*
X130162438Y-84952381D02*
X130114819Y-85095238D01*
X130114819Y-85095238D02*
X130114819Y-85190476D01*
X130114819Y-85190476D02*
X130162438Y-85333333D01*
X130162438Y-85333333D02*
X130210057Y-85380952D01*
X130114819Y-85714286D02*
X130114819Y-86333333D01*
X130114819Y-86333333D02*
X130495771Y-86000000D01*
X130495771Y-86000000D02*
X130495771Y-86142857D01*
X130495771Y-86142857D02*
X130543390Y-86238095D01*
X130543390Y-86238095D02*
X130591009Y-86285714D01*
X130591009Y-86285714D02*
X130686247Y-86333333D01*
X130686247Y-86333333D02*
X130924342Y-86333333D01*
X130924342Y-86333333D02*
X131019580Y-86285714D01*
X131019580Y-86285714D02*
X131067200Y-86238095D01*
X131067200Y-86238095D02*
X131114819Y-86142857D01*
X131114819Y-86142857D02*
X131114819Y-85857143D01*
X131114819Y-85857143D02*
X131067200Y-85761905D01*
X131067200Y-85761905D02*
X131019580Y-85714286D01*
X130114819Y-86952381D02*
X130114819Y-87047619D01*
X130114819Y-87047619D02*
X130162438Y-87142857D01*
X130162438Y-87142857D02*
X130210057Y-87190476D01*
X130210057Y-87190476D02*
X130305295Y-87238095D01*
X130305295Y-87238095D02*
X130495771Y-87285714D01*
X130495771Y-87285714D02*
X130733866Y-87285714D01*
X130733866Y-87285714D02*
X130924342Y-87238095D01*
X130924342Y-87238095D02*
X131019580Y-87190476D01*
X131019580Y-87190476D02*
X131067200Y-87142857D01*
X131067200Y-87142857D02*
X131114819Y-87047619D01*
X131114819Y-87047619D02*
X131114819Y-86952381D01*
X131114819Y-86952381D02*
X131067200Y-86857143D01*
X131067200Y-86857143D02*
X131019580Y-86809524D01*
X131019580Y-86809524D02*
X130924342Y-86761905D01*
X130924342Y-86761905D02*
X130733866Y-86714286D01*
X130733866Y-86714286D02*
X130495771Y-86714286D01*
X130495771Y-86714286D02*
X130305295Y-86761905D01*
X130305295Y-86761905D02*
X130210057Y-86809524D01*
X130210057Y-86809524D02*
X130162438Y-86857143D01*
X130162438Y-86857143D02*
X130114819Y-86952381D01*
X130210057Y-87666667D02*
X130162438Y-87714286D01*
X130162438Y-87714286D02*
X130114819Y-87809524D01*
X130114819Y-87809524D02*
X130114819Y-88047619D01*
X130114819Y-88047619D02*
X130162438Y-88142857D01*
X130162438Y-88142857D02*
X130210057Y-88190476D01*
X130210057Y-88190476D02*
X130305295Y-88238095D01*
X130305295Y-88238095D02*
X130400533Y-88238095D01*
X130400533Y-88238095D02*
X130543390Y-88190476D01*
X130543390Y-88190476D02*
X131114819Y-87619048D01*
X131114819Y-87619048D02*
X131114819Y-88238095D01*
X119199580Y-87880952D02*
X119247200Y-87833333D01*
X119247200Y-87833333D02*
X119294819Y-87690476D01*
X119294819Y-87690476D02*
X119294819Y-87595238D01*
X119294819Y-87595238D02*
X119247200Y-87452381D01*
X119247200Y-87452381D02*
X119151961Y-87357143D01*
X119151961Y-87357143D02*
X119056723Y-87309524D01*
X119056723Y-87309524D02*
X118866247Y-87261905D01*
X118866247Y-87261905D02*
X118723390Y-87261905D01*
X118723390Y-87261905D02*
X118532914Y-87309524D01*
X118532914Y-87309524D02*
X118437676Y-87357143D01*
X118437676Y-87357143D02*
X118342438Y-87452381D01*
X118342438Y-87452381D02*
X118294819Y-87595238D01*
X118294819Y-87595238D02*
X118294819Y-87690476D01*
X118294819Y-87690476D02*
X118342438Y-87833333D01*
X118342438Y-87833333D02*
X118390057Y-87880952D01*
X118294819Y-88214286D02*
X118294819Y-88833333D01*
X118294819Y-88833333D02*
X118675771Y-88500000D01*
X118675771Y-88500000D02*
X118675771Y-88642857D01*
X118675771Y-88642857D02*
X118723390Y-88738095D01*
X118723390Y-88738095D02*
X118771009Y-88785714D01*
X118771009Y-88785714D02*
X118866247Y-88833333D01*
X118866247Y-88833333D02*
X119104342Y-88833333D01*
X119104342Y-88833333D02*
X119199580Y-88785714D01*
X119199580Y-88785714D02*
X119247200Y-88738095D01*
X119247200Y-88738095D02*
X119294819Y-88642857D01*
X119294819Y-88642857D02*
X119294819Y-88357143D01*
X119294819Y-88357143D02*
X119247200Y-88261905D01*
X119247200Y-88261905D02*
X119199580Y-88214286D01*
X118294819Y-89452381D02*
X118294819Y-89547619D01*
X118294819Y-89547619D02*
X118342438Y-89642857D01*
X118342438Y-89642857D02*
X118390057Y-89690476D01*
X118390057Y-89690476D02*
X118485295Y-89738095D01*
X118485295Y-89738095D02*
X118675771Y-89785714D01*
X118675771Y-89785714D02*
X118913866Y-89785714D01*
X118913866Y-89785714D02*
X119104342Y-89738095D01*
X119104342Y-89738095D02*
X119199580Y-89690476D01*
X119199580Y-89690476D02*
X119247200Y-89642857D01*
X119247200Y-89642857D02*
X119294819Y-89547619D01*
X119294819Y-89547619D02*
X119294819Y-89452381D01*
X119294819Y-89452381D02*
X119247200Y-89357143D01*
X119247200Y-89357143D02*
X119199580Y-89309524D01*
X119199580Y-89309524D02*
X119104342Y-89261905D01*
X119104342Y-89261905D02*
X118913866Y-89214286D01*
X118913866Y-89214286D02*
X118675771Y-89214286D01*
X118675771Y-89214286D02*
X118485295Y-89261905D01*
X118485295Y-89261905D02*
X118390057Y-89309524D01*
X118390057Y-89309524D02*
X118342438Y-89357143D01*
X118342438Y-89357143D02*
X118294819Y-89452381D01*
X119294819Y-90738095D02*
X119294819Y-90166667D01*
X119294819Y-90452381D02*
X118294819Y-90452381D01*
X118294819Y-90452381D02*
X118437676Y-90357143D01*
X118437676Y-90357143D02*
X118532914Y-90261905D01*
X118532914Y-90261905D02*
X118580533Y-90166667D01*
D11*
%TO.C,U301*%
X122565000Y-91700000D02*
X122085000Y-91700000D01*
X122325000Y-91370000D01*
X122565000Y-91700000D01*
G36*
X122565000Y-91700000D02*
G01*
X122085000Y-91700000D01*
X122325000Y-91370000D01*
X122565000Y-91700000D01*
G37*
X126975000Y-86345000D02*
X125025000Y-86345000D01*
X123075000Y-86345000D02*
X125025000Y-86345000D01*
X126975000Y-91465000D02*
X125025000Y-91465000D01*
X123075000Y-91465000D02*
X125025000Y-91465000D01*
%TO.C,R301*%
X134620000Y-90167621D02*
X134620000Y-89832379D01*
X135380000Y-90167621D02*
X135380000Y-89832379D01*
%TO.C,C302*%
X129860000Y-86384165D02*
X129860000Y-86615835D01*
X129140000Y-86384165D02*
X129140000Y-86615835D01*
%TO.C,C301*%
X119640000Y-89115835D02*
X119640000Y-88884165D01*
X120360000Y-89115835D02*
X120360000Y-88884165D01*
%TD*%
M02*
