%TF.GenerationSoftware,KiCad,Pcbnew,8.0.3*%
%TF.CreationDate,2024-07-05T22:26:41-07:00*%
%TF.ProjectId,can-opener,63616e2d-6f70-4656-9e65-722e6b696361,rev?*%
%TF.SameCoordinates,Original*%
%TF.FileFunction,Legend,Top*%
%TF.FilePolarity,Positive*%
%FSLAX46Y46*%
G04 Gerber Fmt 4.6, Leading zero omitted, Abs format (unit mm)*
G04 Created by KiCad (PCBNEW 8.0.3) date 2024-07-05 22:26:41*
%MOMM*%
%LPD*%
G01*
G04 APERTURE LIST*
%ADD10C,0.150000*%
%ADD11C,0.120000*%
G04 APERTURE END LIST*
D10*
X103154819Y-88690475D02*
X102154819Y-88690475D01*
X102154819Y-88690475D02*
X102154819Y-88452380D01*
X102154819Y-88452380D02*
X102202438Y-88309523D01*
X102202438Y-88309523D02*
X102297676Y-88214285D01*
X102297676Y-88214285D02*
X102392914Y-88166666D01*
X102392914Y-88166666D02*
X102583390Y-88119047D01*
X102583390Y-88119047D02*
X102726247Y-88119047D01*
X102726247Y-88119047D02*
X102916723Y-88166666D01*
X102916723Y-88166666D02*
X103011961Y-88214285D01*
X103011961Y-88214285D02*
X103107200Y-88309523D01*
X103107200Y-88309523D02*
X103154819Y-88452380D01*
X103154819Y-88452380D02*
X103154819Y-88690475D01*
X102154819Y-87214285D02*
X102154819Y-87690475D01*
X102154819Y-87690475D02*
X102631009Y-87738094D01*
X102631009Y-87738094D02*
X102583390Y-87690475D01*
X102583390Y-87690475D02*
X102535771Y-87595237D01*
X102535771Y-87595237D02*
X102535771Y-87357142D01*
X102535771Y-87357142D02*
X102583390Y-87261904D01*
X102583390Y-87261904D02*
X102631009Y-87214285D01*
X102631009Y-87214285D02*
X102726247Y-87166666D01*
X102726247Y-87166666D02*
X102964342Y-87166666D01*
X102964342Y-87166666D02*
X103059580Y-87214285D01*
X103059580Y-87214285D02*
X103107200Y-87261904D01*
X103107200Y-87261904D02*
X103154819Y-87357142D01*
X103154819Y-87357142D02*
X103154819Y-87595237D01*
X103154819Y-87595237D02*
X103107200Y-87690475D01*
X103107200Y-87690475D02*
X103059580Y-87738094D01*
X102154819Y-86547618D02*
X102154819Y-86452380D01*
X102154819Y-86452380D02*
X102202438Y-86357142D01*
X102202438Y-86357142D02*
X102250057Y-86309523D01*
X102250057Y-86309523D02*
X102345295Y-86261904D01*
X102345295Y-86261904D02*
X102535771Y-86214285D01*
X102535771Y-86214285D02*
X102773866Y-86214285D01*
X102773866Y-86214285D02*
X102964342Y-86261904D01*
X102964342Y-86261904D02*
X103059580Y-86309523D01*
X103059580Y-86309523D02*
X103107200Y-86357142D01*
X103107200Y-86357142D02*
X103154819Y-86452380D01*
X103154819Y-86452380D02*
X103154819Y-86547618D01*
X103154819Y-86547618D02*
X103107200Y-86642856D01*
X103107200Y-86642856D02*
X103059580Y-86690475D01*
X103059580Y-86690475D02*
X102964342Y-86738094D01*
X102964342Y-86738094D02*
X102773866Y-86785713D01*
X102773866Y-86785713D02*
X102535771Y-86785713D01*
X102535771Y-86785713D02*
X102345295Y-86738094D01*
X102345295Y-86738094D02*
X102250057Y-86690475D01*
X102250057Y-86690475D02*
X102202438Y-86642856D01*
X102202438Y-86642856D02*
X102154819Y-86547618D01*
X102154819Y-85309523D02*
X102154819Y-85785713D01*
X102154819Y-85785713D02*
X102631009Y-85833332D01*
X102631009Y-85833332D02*
X102583390Y-85785713D01*
X102583390Y-85785713D02*
X102535771Y-85690475D01*
X102535771Y-85690475D02*
X102535771Y-85452380D01*
X102535771Y-85452380D02*
X102583390Y-85357142D01*
X102583390Y-85357142D02*
X102631009Y-85309523D01*
X102631009Y-85309523D02*
X102726247Y-85261904D01*
X102726247Y-85261904D02*
X102964342Y-85261904D01*
X102964342Y-85261904D02*
X103059580Y-85309523D01*
X103059580Y-85309523D02*
X103107200Y-85357142D01*
X103107200Y-85357142D02*
X103154819Y-85452380D01*
X103154819Y-85452380D02*
X103154819Y-85690475D01*
X103154819Y-85690475D02*
X103107200Y-85785713D01*
X103107200Y-85785713D02*
X103059580Y-85833332D01*
X100754819Y-91690475D02*
X99754819Y-91690475D01*
X99754819Y-91690475D02*
X99754819Y-91452380D01*
X99754819Y-91452380D02*
X99802438Y-91309523D01*
X99802438Y-91309523D02*
X99897676Y-91214285D01*
X99897676Y-91214285D02*
X99992914Y-91166666D01*
X99992914Y-91166666D02*
X100183390Y-91119047D01*
X100183390Y-91119047D02*
X100326247Y-91119047D01*
X100326247Y-91119047D02*
X100516723Y-91166666D01*
X100516723Y-91166666D02*
X100611961Y-91214285D01*
X100611961Y-91214285D02*
X100707200Y-91309523D01*
X100707200Y-91309523D02*
X100754819Y-91452380D01*
X100754819Y-91452380D02*
X100754819Y-91690475D01*
X99754819Y-90214285D02*
X99754819Y-90690475D01*
X99754819Y-90690475D02*
X100231009Y-90738094D01*
X100231009Y-90738094D02*
X100183390Y-90690475D01*
X100183390Y-90690475D02*
X100135771Y-90595237D01*
X100135771Y-90595237D02*
X100135771Y-90357142D01*
X100135771Y-90357142D02*
X100183390Y-90261904D01*
X100183390Y-90261904D02*
X100231009Y-90214285D01*
X100231009Y-90214285D02*
X100326247Y-90166666D01*
X100326247Y-90166666D02*
X100564342Y-90166666D01*
X100564342Y-90166666D02*
X100659580Y-90214285D01*
X100659580Y-90214285D02*
X100707200Y-90261904D01*
X100707200Y-90261904D02*
X100754819Y-90357142D01*
X100754819Y-90357142D02*
X100754819Y-90595237D01*
X100754819Y-90595237D02*
X100707200Y-90690475D01*
X100707200Y-90690475D02*
X100659580Y-90738094D01*
X99754819Y-89547618D02*
X99754819Y-89452380D01*
X99754819Y-89452380D02*
X99802438Y-89357142D01*
X99802438Y-89357142D02*
X99850057Y-89309523D01*
X99850057Y-89309523D02*
X99945295Y-89261904D01*
X99945295Y-89261904D02*
X100135771Y-89214285D01*
X100135771Y-89214285D02*
X100373866Y-89214285D01*
X100373866Y-89214285D02*
X100564342Y-89261904D01*
X100564342Y-89261904D02*
X100659580Y-89309523D01*
X100659580Y-89309523D02*
X100707200Y-89357142D01*
X100707200Y-89357142D02*
X100754819Y-89452380D01*
X100754819Y-89452380D02*
X100754819Y-89547618D01*
X100754819Y-89547618D02*
X100707200Y-89642856D01*
X100707200Y-89642856D02*
X100659580Y-89690475D01*
X100659580Y-89690475D02*
X100564342Y-89738094D01*
X100564342Y-89738094D02*
X100373866Y-89785713D01*
X100373866Y-89785713D02*
X100135771Y-89785713D01*
X100135771Y-89785713D02*
X99945295Y-89738094D01*
X99945295Y-89738094D02*
X99850057Y-89690475D01*
X99850057Y-89690475D02*
X99802438Y-89642856D01*
X99802438Y-89642856D02*
X99754819Y-89547618D01*
X100088152Y-88357142D02*
X100754819Y-88357142D01*
X99707200Y-88595237D02*
X100421485Y-88833332D01*
X100421485Y-88833332D02*
X100421485Y-88214285D01*
X131214285Y-90784819D02*
X131214285Y-91499104D01*
X131214285Y-91499104D02*
X131166666Y-91641961D01*
X131166666Y-91641961D02*
X131071428Y-91737200D01*
X131071428Y-91737200D02*
X130928571Y-91784819D01*
X130928571Y-91784819D02*
X130833333Y-91784819D01*
X131595238Y-90784819D02*
X132214285Y-90784819D01*
X132214285Y-90784819D02*
X131880952Y-91165771D01*
X131880952Y-91165771D02*
X132023809Y-91165771D01*
X132023809Y-91165771D02*
X132119047Y-91213390D01*
X132119047Y-91213390D02*
X132166666Y-91261009D01*
X132166666Y-91261009D02*
X132214285Y-91356247D01*
X132214285Y-91356247D02*
X132214285Y-91594342D01*
X132214285Y-91594342D02*
X132166666Y-91689580D01*
X132166666Y-91689580D02*
X132119047Y-91737200D01*
X132119047Y-91737200D02*
X132023809Y-91784819D01*
X132023809Y-91784819D02*
X131738095Y-91784819D01*
X131738095Y-91784819D02*
X131642857Y-91737200D01*
X131642857Y-91737200D02*
X131595238Y-91689580D01*
X132833333Y-90784819D02*
X132928571Y-90784819D01*
X132928571Y-90784819D02*
X133023809Y-90832438D01*
X133023809Y-90832438D02*
X133071428Y-90880057D01*
X133071428Y-90880057D02*
X133119047Y-90975295D01*
X133119047Y-90975295D02*
X133166666Y-91165771D01*
X133166666Y-91165771D02*
X133166666Y-91403866D01*
X133166666Y-91403866D02*
X133119047Y-91594342D01*
X133119047Y-91594342D02*
X133071428Y-91689580D01*
X133071428Y-91689580D02*
X133023809Y-91737200D01*
X133023809Y-91737200D02*
X132928571Y-91784819D01*
X132928571Y-91784819D02*
X132833333Y-91784819D01*
X132833333Y-91784819D02*
X132738095Y-91737200D01*
X132738095Y-91737200D02*
X132690476Y-91689580D01*
X132690476Y-91689580D02*
X132642857Y-91594342D01*
X132642857Y-91594342D02*
X132595238Y-91403866D01*
X132595238Y-91403866D02*
X132595238Y-91165771D01*
X132595238Y-91165771D02*
X132642857Y-90975295D01*
X132642857Y-90975295D02*
X132690476Y-90880057D01*
X132690476Y-90880057D02*
X132738095Y-90832438D01*
X132738095Y-90832438D02*
X132833333Y-90784819D01*
X134119047Y-91784819D02*
X133547619Y-91784819D01*
X133833333Y-91784819D02*
X133833333Y-90784819D01*
X133833333Y-90784819D02*
X133738095Y-90927676D01*
X133738095Y-90927676D02*
X133642857Y-91022914D01*
X133642857Y-91022914D02*
X133547619Y-91070533D01*
X102285714Y-91454819D02*
X102285714Y-92264342D01*
X102285714Y-92264342D02*
X102333333Y-92359580D01*
X102333333Y-92359580D02*
X102380952Y-92407200D01*
X102380952Y-92407200D02*
X102476190Y-92454819D01*
X102476190Y-92454819D02*
X102666666Y-92454819D01*
X102666666Y-92454819D02*
X102761904Y-92407200D01*
X102761904Y-92407200D02*
X102809523Y-92359580D01*
X102809523Y-92359580D02*
X102857142Y-92264342D01*
X102857142Y-92264342D02*
X102857142Y-91454819D01*
X103761904Y-91788152D02*
X103761904Y-92454819D01*
X103523809Y-91407200D02*
X103285714Y-92121485D01*
X103285714Y-92121485D02*
X103904761Y-92121485D01*
X104476190Y-91454819D02*
X104571428Y-91454819D01*
X104571428Y-91454819D02*
X104666666Y-91502438D01*
X104666666Y-91502438D02*
X104714285Y-91550057D01*
X104714285Y-91550057D02*
X104761904Y-91645295D01*
X104761904Y-91645295D02*
X104809523Y-91835771D01*
X104809523Y-91835771D02*
X104809523Y-92073866D01*
X104809523Y-92073866D02*
X104761904Y-92264342D01*
X104761904Y-92264342D02*
X104714285Y-92359580D01*
X104714285Y-92359580D02*
X104666666Y-92407200D01*
X104666666Y-92407200D02*
X104571428Y-92454819D01*
X104571428Y-92454819D02*
X104476190Y-92454819D01*
X104476190Y-92454819D02*
X104380952Y-92407200D01*
X104380952Y-92407200D02*
X104333333Y-92359580D01*
X104333333Y-92359580D02*
X104285714Y-92264342D01*
X104285714Y-92264342D02*
X104238095Y-92073866D01*
X104238095Y-92073866D02*
X104238095Y-91835771D01*
X104238095Y-91835771D02*
X104285714Y-91645295D01*
X104285714Y-91645295D02*
X104333333Y-91550057D01*
X104333333Y-91550057D02*
X104380952Y-91502438D01*
X104380952Y-91502438D02*
X104476190Y-91454819D01*
X105761904Y-92454819D02*
X105190476Y-92454819D01*
X105476190Y-92454819D02*
X105476190Y-91454819D01*
X105476190Y-91454819D02*
X105380952Y-91597676D01*
X105380952Y-91597676D02*
X105285714Y-91692914D01*
X105285714Y-91692914D02*
X105190476Y-91740533D01*
X113585714Y-90984819D02*
X113585714Y-91794342D01*
X113585714Y-91794342D02*
X113633333Y-91889580D01*
X113633333Y-91889580D02*
X113680952Y-91937200D01*
X113680952Y-91937200D02*
X113776190Y-91984819D01*
X113776190Y-91984819D02*
X113966666Y-91984819D01*
X113966666Y-91984819D02*
X114061904Y-91937200D01*
X114061904Y-91937200D02*
X114109523Y-91889580D01*
X114109523Y-91889580D02*
X114157142Y-91794342D01*
X114157142Y-91794342D02*
X114157142Y-90984819D01*
X114585714Y-91080057D02*
X114633333Y-91032438D01*
X114633333Y-91032438D02*
X114728571Y-90984819D01*
X114728571Y-90984819D02*
X114966666Y-90984819D01*
X114966666Y-90984819D02*
X115061904Y-91032438D01*
X115061904Y-91032438D02*
X115109523Y-91080057D01*
X115109523Y-91080057D02*
X115157142Y-91175295D01*
X115157142Y-91175295D02*
X115157142Y-91270533D01*
X115157142Y-91270533D02*
X115109523Y-91413390D01*
X115109523Y-91413390D02*
X114538095Y-91984819D01*
X114538095Y-91984819D02*
X115157142Y-91984819D01*
X115776190Y-90984819D02*
X115871428Y-90984819D01*
X115871428Y-90984819D02*
X115966666Y-91032438D01*
X115966666Y-91032438D02*
X116014285Y-91080057D01*
X116014285Y-91080057D02*
X116061904Y-91175295D01*
X116061904Y-91175295D02*
X116109523Y-91365771D01*
X116109523Y-91365771D02*
X116109523Y-91603866D01*
X116109523Y-91603866D02*
X116061904Y-91794342D01*
X116061904Y-91794342D02*
X116014285Y-91889580D01*
X116014285Y-91889580D02*
X115966666Y-91937200D01*
X115966666Y-91937200D02*
X115871428Y-91984819D01*
X115871428Y-91984819D02*
X115776190Y-91984819D01*
X115776190Y-91984819D02*
X115680952Y-91937200D01*
X115680952Y-91937200D02*
X115633333Y-91889580D01*
X115633333Y-91889580D02*
X115585714Y-91794342D01*
X115585714Y-91794342D02*
X115538095Y-91603866D01*
X115538095Y-91603866D02*
X115538095Y-91365771D01*
X115538095Y-91365771D02*
X115585714Y-91175295D01*
X115585714Y-91175295D02*
X115633333Y-91080057D01*
X115633333Y-91080057D02*
X115680952Y-91032438D01*
X115680952Y-91032438D02*
X115776190Y-90984819D01*
X117061904Y-91984819D02*
X116490476Y-91984819D01*
X116776190Y-91984819D02*
X116776190Y-90984819D01*
X116776190Y-90984819D02*
X116680952Y-91127676D01*
X116680952Y-91127676D02*
X116585714Y-91222914D01*
X116585714Y-91222914D02*
X116490476Y-91270533D01*
X108084819Y-97015714D02*
X108799104Y-97015714D01*
X108799104Y-97015714D02*
X108941961Y-97063333D01*
X108941961Y-97063333D02*
X109037200Y-97158571D01*
X109037200Y-97158571D02*
X109084819Y-97301428D01*
X109084819Y-97301428D02*
X109084819Y-97396666D01*
X108084819Y-96063333D02*
X108084819Y-96539523D01*
X108084819Y-96539523D02*
X108561009Y-96587142D01*
X108561009Y-96587142D02*
X108513390Y-96539523D01*
X108513390Y-96539523D02*
X108465771Y-96444285D01*
X108465771Y-96444285D02*
X108465771Y-96206190D01*
X108465771Y-96206190D02*
X108513390Y-96110952D01*
X108513390Y-96110952D02*
X108561009Y-96063333D01*
X108561009Y-96063333D02*
X108656247Y-96015714D01*
X108656247Y-96015714D02*
X108894342Y-96015714D01*
X108894342Y-96015714D02*
X108989580Y-96063333D01*
X108989580Y-96063333D02*
X109037200Y-96110952D01*
X109037200Y-96110952D02*
X109084819Y-96206190D01*
X109084819Y-96206190D02*
X109084819Y-96444285D01*
X109084819Y-96444285D02*
X109037200Y-96539523D01*
X109037200Y-96539523D02*
X108989580Y-96587142D01*
X108084819Y-95396666D02*
X108084819Y-95301428D01*
X108084819Y-95301428D02*
X108132438Y-95206190D01*
X108132438Y-95206190D02*
X108180057Y-95158571D01*
X108180057Y-95158571D02*
X108275295Y-95110952D01*
X108275295Y-95110952D02*
X108465771Y-95063333D01*
X108465771Y-95063333D02*
X108703866Y-95063333D01*
X108703866Y-95063333D02*
X108894342Y-95110952D01*
X108894342Y-95110952D02*
X108989580Y-95158571D01*
X108989580Y-95158571D02*
X109037200Y-95206190D01*
X109037200Y-95206190D02*
X109084819Y-95301428D01*
X109084819Y-95301428D02*
X109084819Y-95396666D01*
X109084819Y-95396666D02*
X109037200Y-95491904D01*
X109037200Y-95491904D02*
X108989580Y-95539523D01*
X108989580Y-95539523D02*
X108894342Y-95587142D01*
X108894342Y-95587142D02*
X108703866Y-95634761D01*
X108703866Y-95634761D02*
X108465771Y-95634761D01*
X108465771Y-95634761D02*
X108275295Y-95587142D01*
X108275295Y-95587142D02*
X108180057Y-95539523D01*
X108180057Y-95539523D02*
X108132438Y-95491904D01*
X108132438Y-95491904D02*
X108084819Y-95396666D01*
X108418152Y-94206190D02*
X109084819Y-94206190D01*
X108037200Y-94444285D02*
X108751485Y-94682380D01*
X108751485Y-94682380D02*
X108751485Y-94063333D01*
X135004819Y-85285714D02*
X135719104Y-85285714D01*
X135719104Y-85285714D02*
X135861961Y-85333333D01*
X135861961Y-85333333D02*
X135957200Y-85428571D01*
X135957200Y-85428571D02*
X136004819Y-85571428D01*
X136004819Y-85571428D02*
X136004819Y-85666666D01*
X135004819Y-84333333D02*
X135004819Y-84809523D01*
X135004819Y-84809523D02*
X135481009Y-84857142D01*
X135481009Y-84857142D02*
X135433390Y-84809523D01*
X135433390Y-84809523D02*
X135385771Y-84714285D01*
X135385771Y-84714285D02*
X135385771Y-84476190D01*
X135385771Y-84476190D02*
X135433390Y-84380952D01*
X135433390Y-84380952D02*
X135481009Y-84333333D01*
X135481009Y-84333333D02*
X135576247Y-84285714D01*
X135576247Y-84285714D02*
X135814342Y-84285714D01*
X135814342Y-84285714D02*
X135909580Y-84333333D01*
X135909580Y-84333333D02*
X135957200Y-84380952D01*
X135957200Y-84380952D02*
X136004819Y-84476190D01*
X136004819Y-84476190D02*
X136004819Y-84714285D01*
X136004819Y-84714285D02*
X135957200Y-84809523D01*
X135957200Y-84809523D02*
X135909580Y-84857142D01*
X135004819Y-83666666D02*
X135004819Y-83571428D01*
X135004819Y-83571428D02*
X135052438Y-83476190D01*
X135052438Y-83476190D02*
X135100057Y-83428571D01*
X135100057Y-83428571D02*
X135195295Y-83380952D01*
X135195295Y-83380952D02*
X135385771Y-83333333D01*
X135385771Y-83333333D02*
X135623866Y-83333333D01*
X135623866Y-83333333D02*
X135814342Y-83380952D01*
X135814342Y-83380952D02*
X135909580Y-83428571D01*
X135909580Y-83428571D02*
X135957200Y-83476190D01*
X135957200Y-83476190D02*
X136004819Y-83571428D01*
X136004819Y-83571428D02*
X136004819Y-83666666D01*
X136004819Y-83666666D02*
X135957200Y-83761904D01*
X135957200Y-83761904D02*
X135909580Y-83809523D01*
X135909580Y-83809523D02*
X135814342Y-83857142D01*
X135814342Y-83857142D02*
X135623866Y-83904761D01*
X135623866Y-83904761D02*
X135385771Y-83904761D01*
X135385771Y-83904761D02*
X135195295Y-83857142D01*
X135195295Y-83857142D02*
X135100057Y-83809523D01*
X135100057Y-83809523D02*
X135052438Y-83761904D01*
X135052438Y-83761904D02*
X135004819Y-83666666D01*
X135004819Y-82999999D02*
X135004819Y-82380952D01*
X135004819Y-82380952D02*
X135385771Y-82714285D01*
X135385771Y-82714285D02*
X135385771Y-82571428D01*
X135385771Y-82571428D02*
X135433390Y-82476190D01*
X135433390Y-82476190D02*
X135481009Y-82428571D01*
X135481009Y-82428571D02*
X135576247Y-82380952D01*
X135576247Y-82380952D02*
X135814342Y-82380952D01*
X135814342Y-82380952D02*
X135909580Y-82428571D01*
X135909580Y-82428571D02*
X135957200Y-82476190D01*
X135957200Y-82476190D02*
X136004819Y-82571428D01*
X136004819Y-82571428D02*
X136004819Y-82857142D01*
X136004819Y-82857142D02*
X135957200Y-82952380D01*
X135957200Y-82952380D02*
X135909580Y-82999999D01*
X135004819Y-94285714D02*
X135719104Y-94285714D01*
X135719104Y-94285714D02*
X135861961Y-94333333D01*
X135861961Y-94333333D02*
X135957200Y-94428571D01*
X135957200Y-94428571D02*
X136004819Y-94571428D01*
X136004819Y-94571428D02*
X136004819Y-94666666D01*
X135004819Y-93333333D02*
X135004819Y-93809523D01*
X135004819Y-93809523D02*
X135481009Y-93857142D01*
X135481009Y-93857142D02*
X135433390Y-93809523D01*
X135433390Y-93809523D02*
X135385771Y-93714285D01*
X135385771Y-93714285D02*
X135385771Y-93476190D01*
X135385771Y-93476190D02*
X135433390Y-93380952D01*
X135433390Y-93380952D02*
X135481009Y-93333333D01*
X135481009Y-93333333D02*
X135576247Y-93285714D01*
X135576247Y-93285714D02*
X135814342Y-93285714D01*
X135814342Y-93285714D02*
X135909580Y-93333333D01*
X135909580Y-93333333D02*
X135957200Y-93380952D01*
X135957200Y-93380952D02*
X136004819Y-93476190D01*
X136004819Y-93476190D02*
X136004819Y-93714285D01*
X136004819Y-93714285D02*
X135957200Y-93809523D01*
X135957200Y-93809523D02*
X135909580Y-93857142D01*
X135004819Y-92666666D02*
X135004819Y-92571428D01*
X135004819Y-92571428D02*
X135052438Y-92476190D01*
X135052438Y-92476190D02*
X135100057Y-92428571D01*
X135100057Y-92428571D02*
X135195295Y-92380952D01*
X135195295Y-92380952D02*
X135385771Y-92333333D01*
X135385771Y-92333333D02*
X135623866Y-92333333D01*
X135623866Y-92333333D02*
X135814342Y-92380952D01*
X135814342Y-92380952D02*
X135909580Y-92428571D01*
X135909580Y-92428571D02*
X135957200Y-92476190D01*
X135957200Y-92476190D02*
X136004819Y-92571428D01*
X136004819Y-92571428D02*
X136004819Y-92666666D01*
X136004819Y-92666666D02*
X135957200Y-92761904D01*
X135957200Y-92761904D02*
X135909580Y-92809523D01*
X135909580Y-92809523D02*
X135814342Y-92857142D01*
X135814342Y-92857142D02*
X135623866Y-92904761D01*
X135623866Y-92904761D02*
X135385771Y-92904761D01*
X135385771Y-92904761D02*
X135195295Y-92857142D01*
X135195295Y-92857142D02*
X135100057Y-92809523D01*
X135100057Y-92809523D02*
X135052438Y-92761904D01*
X135052438Y-92761904D02*
X135004819Y-92666666D01*
X135100057Y-91952380D02*
X135052438Y-91904761D01*
X135052438Y-91904761D02*
X135004819Y-91809523D01*
X135004819Y-91809523D02*
X135004819Y-91571428D01*
X135004819Y-91571428D02*
X135052438Y-91476190D01*
X135052438Y-91476190D02*
X135100057Y-91428571D01*
X135100057Y-91428571D02*
X135195295Y-91380952D01*
X135195295Y-91380952D02*
X135290533Y-91380952D01*
X135290533Y-91380952D02*
X135433390Y-91428571D01*
X135433390Y-91428571D02*
X136004819Y-91999999D01*
X136004819Y-91999999D02*
X136004819Y-91380952D01*
X84914285Y-95454819D02*
X84914285Y-96169104D01*
X84914285Y-96169104D02*
X84866666Y-96311961D01*
X84866666Y-96311961D02*
X84771428Y-96407200D01*
X84771428Y-96407200D02*
X84628571Y-96454819D01*
X84628571Y-96454819D02*
X84533333Y-96454819D01*
X85866666Y-95454819D02*
X85390476Y-95454819D01*
X85390476Y-95454819D02*
X85342857Y-95931009D01*
X85342857Y-95931009D02*
X85390476Y-95883390D01*
X85390476Y-95883390D02*
X85485714Y-95835771D01*
X85485714Y-95835771D02*
X85723809Y-95835771D01*
X85723809Y-95835771D02*
X85819047Y-95883390D01*
X85819047Y-95883390D02*
X85866666Y-95931009D01*
X85866666Y-95931009D02*
X85914285Y-96026247D01*
X85914285Y-96026247D02*
X85914285Y-96264342D01*
X85914285Y-96264342D02*
X85866666Y-96359580D01*
X85866666Y-96359580D02*
X85819047Y-96407200D01*
X85819047Y-96407200D02*
X85723809Y-96454819D01*
X85723809Y-96454819D02*
X85485714Y-96454819D01*
X85485714Y-96454819D02*
X85390476Y-96407200D01*
X85390476Y-96407200D02*
X85342857Y-96359580D01*
X86533333Y-95454819D02*
X86628571Y-95454819D01*
X86628571Y-95454819D02*
X86723809Y-95502438D01*
X86723809Y-95502438D02*
X86771428Y-95550057D01*
X86771428Y-95550057D02*
X86819047Y-95645295D01*
X86819047Y-95645295D02*
X86866666Y-95835771D01*
X86866666Y-95835771D02*
X86866666Y-96073866D01*
X86866666Y-96073866D02*
X86819047Y-96264342D01*
X86819047Y-96264342D02*
X86771428Y-96359580D01*
X86771428Y-96359580D02*
X86723809Y-96407200D01*
X86723809Y-96407200D02*
X86628571Y-96454819D01*
X86628571Y-96454819D02*
X86533333Y-96454819D01*
X86533333Y-96454819D02*
X86438095Y-96407200D01*
X86438095Y-96407200D02*
X86390476Y-96359580D01*
X86390476Y-96359580D02*
X86342857Y-96264342D01*
X86342857Y-96264342D02*
X86295238Y-96073866D01*
X86295238Y-96073866D02*
X86295238Y-95835771D01*
X86295238Y-95835771D02*
X86342857Y-95645295D01*
X86342857Y-95645295D02*
X86390476Y-95550057D01*
X86390476Y-95550057D02*
X86438095Y-95502438D01*
X86438095Y-95502438D02*
X86533333Y-95454819D01*
X87819047Y-96454819D02*
X87247619Y-96454819D01*
X87533333Y-96454819D02*
X87533333Y-95454819D01*
X87533333Y-95454819D02*
X87438095Y-95597676D01*
X87438095Y-95597676D02*
X87342857Y-95692914D01*
X87342857Y-95692914D02*
X87247619Y-95740533D01*
X119154819Y-99690475D02*
X118154819Y-99690475D01*
X118154819Y-99690475D02*
X118154819Y-99452380D01*
X118154819Y-99452380D02*
X118202438Y-99309523D01*
X118202438Y-99309523D02*
X118297676Y-99214285D01*
X118297676Y-99214285D02*
X118392914Y-99166666D01*
X118392914Y-99166666D02*
X118583390Y-99119047D01*
X118583390Y-99119047D02*
X118726247Y-99119047D01*
X118726247Y-99119047D02*
X118916723Y-99166666D01*
X118916723Y-99166666D02*
X119011961Y-99214285D01*
X119011961Y-99214285D02*
X119107200Y-99309523D01*
X119107200Y-99309523D02*
X119154819Y-99452380D01*
X119154819Y-99452380D02*
X119154819Y-99690475D01*
X118154819Y-98214285D02*
X118154819Y-98690475D01*
X118154819Y-98690475D02*
X118631009Y-98738094D01*
X118631009Y-98738094D02*
X118583390Y-98690475D01*
X118583390Y-98690475D02*
X118535771Y-98595237D01*
X118535771Y-98595237D02*
X118535771Y-98357142D01*
X118535771Y-98357142D02*
X118583390Y-98261904D01*
X118583390Y-98261904D02*
X118631009Y-98214285D01*
X118631009Y-98214285D02*
X118726247Y-98166666D01*
X118726247Y-98166666D02*
X118964342Y-98166666D01*
X118964342Y-98166666D02*
X119059580Y-98214285D01*
X119059580Y-98214285D02*
X119107200Y-98261904D01*
X119107200Y-98261904D02*
X119154819Y-98357142D01*
X119154819Y-98357142D02*
X119154819Y-98595237D01*
X119154819Y-98595237D02*
X119107200Y-98690475D01*
X119107200Y-98690475D02*
X119059580Y-98738094D01*
X118154819Y-97547618D02*
X118154819Y-97452380D01*
X118154819Y-97452380D02*
X118202438Y-97357142D01*
X118202438Y-97357142D02*
X118250057Y-97309523D01*
X118250057Y-97309523D02*
X118345295Y-97261904D01*
X118345295Y-97261904D02*
X118535771Y-97214285D01*
X118535771Y-97214285D02*
X118773866Y-97214285D01*
X118773866Y-97214285D02*
X118964342Y-97261904D01*
X118964342Y-97261904D02*
X119059580Y-97309523D01*
X119059580Y-97309523D02*
X119107200Y-97357142D01*
X119107200Y-97357142D02*
X119154819Y-97452380D01*
X119154819Y-97452380D02*
X119154819Y-97547618D01*
X119154819Y-97547618D02*
X119107200Y-97642856D01*
X119107200Y-97642856D02*
X119059580Y-97690475D01*
X119059580Y-97690475D02*
X118964342Y-97738094D01*
X118964342Y-97738094D02*
X118773866Y-97785713D01*
X118773866Y-97785713D02*
X118535771Y-97785713D01*
X118535771Y-97785713D02*
X118345295Y-97738094D01*
X118345295Y-97738094D02*
X118250057Y-97690475D01*
X118250057Y-97690475D02*
X118202438Y-97642856D01*
X118202438Y-97642856D02*
X118154819Y-97547618D01*
X118154819Y-96880951D02*
X118154819Y-96261904D01*
X118154819Y-96261904D02*
X118535771Y-96595237D01*
X118535771Y-96595237D02*
X118535771Y-96452380D01*
X118535771Y-96452380D02*
X118583390Y-96357142D01*
X118583390Y-96357142D02*
X118631009Y-96309523D01*
X118631009Y-96309523D02*
X118726247Y-96261904D01*
X118726247Y-96261904D02*
X118964342Y-96261904D01*
X118964342Y-96261904D02*
X119059580Y-96309523D01*
X119059580Y-96309523D02*
X119107200Y-96357142D01*
X119107200Y-96357142D02*
X119154819Y-96452380D01*
X119154819Y-96452380D02*
X119154819Y-96738094D01*
X119154819Y-96738094D02*
X119107200Y-96833332D01*
X119107200Y-96833332D02*
X119059580Y-96880951D01*
X107729524Y-91254819D02*
X107729524Y-90254819D01*
X107729524Y-90254819D02*
X107967619Y-90254819D01*
X107967619Y-90254819D02*
X108110476Y-90302438D01*
X108110476Y-90302438D02*
X108205714Y-90397676D01*
X108205714Y-90397676D02*
X108253333Y-90492914D01*
X108253333Y-90492914D02*
X108300952Y-90683390D01*
X108300952Y-90683390D02*
X108300952Y-90826247D01*
X108300952Y-90826247D02*
X108253333Y-91016723D01*
X108253333Y-91016723D02*
X108205714Y-91111961D01*
X108205714Y-91111961D02*
X108110476Y-91207200D01*
X108110476Y-91207200D02*
X107967619Y-91254819D01*
X107967619Y-91254819D02*
X107729524Y-91254819D01*
X109205714Y-90254819D02*
X108729524Y-90254819D01*
X108729524Y-90254819D02*
X108681905Y-90731009D01*
X108681905Y-90731009D02*
X108729524Y-90683390D01*
X108729524Y-90683390D02*
X108824762Y-90635771D01*
X108824762Y-90635771D02*
X109062857Y-90635771D01*
X109062857Y-90635771D02*
X109158095Y-90683390D01*
X109158095Y-90683390D02*
X109205714Y-90731009D01*
X109205714Y-90731009D02*
X109253333Y-90826247D01*
X109253333Y-90826247D02*
X109253333Y-91064342D01*
X109253333Y-91064342D02*
X109205714Y-91159580D01*
X109205714Y-91159580D02*
X109158095Y-91207200D01*
X109158095Y-91207200D02*
X109062857Y-91254819D01*
X109062857Y-91254819D02*
X108824762Y-91254819D01*
X108824762Y-91254819D02*
X108729524Y-91207200D01*
X108729524Y-91207200D02*
X108681905Y-91159580D01*
X109872381Y-90254819D02*
X109967619Y-90254819D01*
X109967619Y-90254819D02*
X110062857Y-90302438D01*
X110062857Y-90302438D02*
X110110476Y-90350057D01*
X110110476Y-90350057D02*
X110158095Y-90445295D01*
X110158095Y-90445295D02*
X110205714Y-90635771D01*
X110205714Y-90635771D02*
X110205714Y-90873866D01*
X110205714Y-90873866D02*
X110158095Y-91064342D01*
X110158095Y-91064342D02*
X110110476Y-91159580D01*
X110110476Y-91159580D02*
X110062857Y-91207200D01*
X110062857Y-91207200D02*
X109967619Y-91254819D01*
X109967619Y-91254819D02*
X109872381Y-91254819D01*
X109872381Y-91254819D02*
X109777143Y-91207200D01*
X109777143Y-91207200D02*
X109729524Y-91159580D01*
X109729524Y-91159580D02*
X109681905Y-91064342D01*
X109681905Y-91064342D02*
X109634286Y-90873866D01*
X109634286Y-90873866D02*
X109634286Y-90635771D01*
X109634286Y-90635771D02*
X109681905Y-90445295D01*
X109681905Y-90445295D02*
X109729524Y-90350057D01*
X109729524Y-90350057D02*
X109777143Y-90302438D01*
X109777143Y-90302438D02*
X109872381Y-90254819D01*
X110586667Y-90350057D02*
X110634286Y-90302438D01*
X110634286Y-90302438D02*
X110729524Y-90254819D01*
X110729524Y-90254819D02*
X110967619Y-90254819D01*
X110967619Y-90254819D02*
X111062857Y-90302438D01*
X111062857Y-90302438D02*
X111110476Y-90350057D01*
X111110476Y-90350057D02*
X111158095Y-90445295D01*
X111158095Y-90445295D02*
X111158095Y-90540533D01*
X111158095Y-90540533D02*
X111110476Y-90683390D01*
X111110476Y-90683390D02*
X110539048Y-91254819D01*
X110539048Y-91254819D02*
X111158095Y-91254819D01*
X111809524Y-93654819D02*
X111809524Y-92654819D01*
X111809524Y-92654819D02*
X112047619Y-92654819D01*
X112047619Y-92654819D02*
X112190476Y-92702438D01*
X112190476Y-92702438D02*
X112285714Y-92797676D01*
X112285714Y-92797676D02*
X112333333Y-92892914D01*
X112333333Y-92892914D02*
X112380952Y-93083390D01*
X112380952Y-93083390D02*
X112380952Y-93226247D01*
X112380952Y-93226247D02*
X112333333Y-93416723D01*
X112333333Y-93416723D02*
X112285714Y-93511961D01*
X112285714Y-93511961D02*
X112190476Y-93607200D01*
X112190476Y-93607200D02*
X112047619Y-93654819D01*
X112047619Y-93654819D02*
X111809524Y-93654819D01*
X113285714Y-92654819D02*
X112809524Y-92654819D01*
X112809524Y-92654819D02*
X112761905Y-93131009D01*
X112761905Y-93131009D02*
X112809524Y-93083390D01*
X112809524Y-93083390D02*
X112904762Y-93035771D01*
X112904762Y-93035771D02*
X113142857Y-93035771D01*
X113142857Y-93035771D02*
X113238095Y-93083390D01*
X113238095Y-93083390D02*
X113285714Y-93131009D01*
X113285714Y-93131009D02*
X113333333Y-93226247D01*
X113333333Y-93226247D02*
X113333333Y-93464342D01*
X113333333Y-93464342D02*
X113285714Y-93559580D01*
X113285714Y-93559580D02*
X113238095Y-93607200D01*
X113238095Y-93607200D02*
X113142857Y-93654819D01*
X113142857Y-93654819D02*
X112904762Y-93654819D01*
X112904762Y-93654819D02*
X112809524Y-93607200D01*
X112809524Y-93607200D02*
X112761905Y-93559580D01*
X113952381Y-92654819D02*
X114047619Y-92654819D01*
X114047619Y-92654819D02*
X114142857Y-92702438D01*
X114142857Y-92702438D02*
X114190476Y-92750057D01*
X114190476Y-92750057D02*
X114238095Y-92845295D01*
X114238095Y-92845295D02*
X114285714Y-93035771D01*
X114285714Y-93035771D02*
X114285714Y-93273866D01*
X114285714Y-93273866D02*
X114238095Y-93464342D01*
X114238095Y-93464342D02*
X114190476Y-93559580D01*
X114190476Y-93559580D02*
X114142857Y-93607200D01*
X114142857Y-93607200D02*
X114047619Y-93654819D01*
X114047619Y-93654819D02*
X113952381Y-93654819D01*
X113952381Y-93654819D02*
X113857143Y-93607200D01*
X113857143Y-93607200D02*
X113809524Y-93559580D01*
X113809524Y-93559580D02*
X113761905Y-93464342D01*
X113761905Y-93464342D02*
X113714286Y-93273866D01*
X113714286Y-93273866D02*
X113714286Y-93035771D01*
X113714286Y-93035771D02*
X113761905Y-92845295D01*
X113761905Y-92845295D02*
X113809524Y-92750057D01*
X113809524Y-92750057D02*
X113857143Y-92702438D01*
X113857143Y-92702438D02*
X113952381Y-92654819D01*
X115238095Y-93654819D02*
X114666667Y-93654819D01*
X114952381Y-93654819D02*
X114952381Y-92654819D01*
X114952381Y-92654819D02*
X114857143Y-92797676D01*
X114857143Y-92797676D02*
X114761905Y-92892914D01*
X114761905Y-92892914D02*
X114666667Y-92940533D01*
X108519580Y-95186547D02*
X108567200Y-95234166D01*
X108567200Y-95234166D02*
X108614819Y-95377023D01*
X108614819Y-95377023D02*
X108614819Y-95472261D01*
X108614819Y-95472261D02*
X108567200Y-95615118D01*
X108567200Y-95615118D02*
X108471961Y-95710356D01*
X108471961Y-95710356D02*
X108376723Y-95757975D01*
X108376723Y-95757975D02*
X108186247Y-95805594D01*
X108186247Y-95805594D02*
X108043390Y-95805594D01*
X108043390Y-95805594D02*
X107852914Y-95757975D01*
X107852914Y-95757975D02*
X107757676Y-95710356D01*
X107757676Y-95710356D02*
X107662438Y-95615118D01*
X107662438Y-95615118D02*
X107614819Y-95472261D01*
X107614819Y-95472261D02*
X107614819Y-95377023D01*
X107614819Y-95377023D02*
X107662438Y-95234166D01*
X107662438Y-95234166D02*
X107710057Y-95186547D01*
X107948152Y-94329404D02*
X108614819Y-94329404D01*
X107567200Y-94567499D02*
X108281485Y-94805594D01*
X108281485Y-94805594D02*
X108281485Y-94186547D01*
X107614819Y-93615118D02*
X107614819Y-93519880D01*
X107614819Y-93519880D02*
X107662438Y-93424642D01*
X107662438Y-93424642D02*
X107710057Y-93377023D01*
X107710057Y-93377023D02*
X107805295Y-93329404D01*
X107805295Y-93329404D02*
X107995771Y-93281785D01*
X107995771Y-93281785D02*
X108233866Y-93281785D01*
X108233866Y-93281785D02*
X108424342Y-93329404D01*
X108424342Y-93329404D02*
X108519580Y-93377023D01*
X108519580Y-93377023D02*
X108567200Y-93424642D01*
X108567200Y-93424642D02*
X108614819Y-93519880D01*
X108614819Y-93519880D02*
X108614819Y-93615118D01*
X108614819Y-93615118D02*
X108567200Y-93710356D01*
X108567200Y-93710356D02*
X108519580Y-93757975D01*
X108519580Y-93757975D02*
X108424342Y-93805594D01*
X108424342Y-93805594D02*
X108233866Y-93853213D01*
X108233866Y-93853213D02*
X107995771Y-93853213D01*
X107995771Y-93853213D02*
X107805295Y-93805594D01*
X107805295Y-93805594D02*
X107710057Y-93757975D01*
X107710057Y-93757975D02*
X107662438Y-93710356D01*
X107662438Y-93710356D02*
X107614819Y-93615118D01*
X107710057Y-92900832D02*
X107662438Y-92853213D01*
X107662438Y-92853213D02*
X107614819Y-92757975D01*
X107614819Y-92757975D02*
X107614819Y-92519880D01*
X107614819Y-92519880D02*
X107662438Y-92424642D01*
X107662438Y-92424642D02*
X107710057Y-92377023D01*
X107710057Y-92377023D02*
X107805295Y-92329404D01*
X107805295Y-92329404D02*
X107900533Y-92329404D01*
X107900533Y-92329404D02*
X108043390Y-92377023D01*
X108043390Y-92377023D02*
X108614819Y-92948451D01*
X108614819Y-92948451D02*
X108614819Y-92329404D01*
X100132080Y-96119047D02*
X100179700Y-96166666D01*
X100179700Y-96166666D02*
X100227319Y-96309523D01*
X100227319Y-96309523D02*
X100227319Y-96404761D01*
X100227319Y-96404761D02*
X100179700Y-96547618D01*
X100179700Y-96547618D02*
X100084461Y-96642856D01*
X100084461Y-96642856D02*
X99989223Y-96690475D01*
X99989223Y-96690475D02*
X99798747Y-96738094D01*
X99798747Y-96738094D02*
X99655890Y-96738094D01*
X99655890Y-96738094D02*
X99465414Y-96690475D01*
X99465414Y-96690475D02*
X99370176Y-96642856D01*
X99370176Y-96642856D02*
X99274938Y-96547618D01*
X99274938Y-96547618D02*
X99227319Y-96404761D01*
X99227319Y-96404761D02*
X99227319Y-96309523D01*
X99227319Y-96309523D02*
X99274938Y-96166666D01*
X99274938Y-96166666D02*
X99322557Y-96119047D01*
X99560652Y-95261904D02*
X100227319Y-95261904D01*
X99179700Y-95499999D02*
X99893985Y-95738094D01*
X99893985Y-95738094D02*
X99893985Y-95119047D01*
X99227319Y-94547618D02*
X99227319Y-94452380D01*
X99227319Y-94452380D02*
X99274938Y-94357142D01*
X99274938Y-94357142D02*
X99322557Y-94309523D01*
X99322557Y-94309523D02*
X99417795Y-94261904D01*
X99417795Y-94261904D02*
X99608271Y-94214285D01*
X99608271Y-94214285D02*
X99846366Y-94214285D01*
X99846366Y-94214285D02*
X100036842Y-94261904D01*
X100036842Y-94261904D02*
X100132080Y-94309523D01*
X100132080Y-94309523D02*
X100179700Y-94357142D01*
X100179700Y-94357142D02*
X100227319Y-94452380D01*
X100227319Y-94452380D02*
X100227319Y-94547618D01*
X100227319Y-94547618D02*
X100179700Y-94642856D01*
X100179700Y-94642856D02*
X100132080Y-94690475D01*
X100132080Y-94690475D02*
X100036842Y-94738094D01*
X100036842Y-94738094D02*
X99846366Y-94785713D01*
X99846366Y-94785713D02*
X99608271Y-94785713D01*
X99608271Y-94785713D02*
X99417795Y-94738094D01*
X99417795Y-94738094D02*
X99322557Y-94690475D01*
X99322557Y-94690475D02*
X99274938Y-94642856D01*
X99274938Y-94642856D02*
X99227319Y-94547618D01*
X100227319Y-93261904D02*
X100227319Y-93833332D01*
X100227319Y-93547618D02*
X99227319Y-93547618D01*
X99227319Y-93547618D02*
X99370176Y-93642856D01*
X99370176Y-93642856D02*
X99465414Y-93738094D01*
X99465414Y-93738094D02*
X99513033Y-93833332D01*
X121448452Y-86699580D02*
X121400833Y-86747200D01*
X121400833Y-86747200D02*
X121257976Y-86794819D01*
X121257976Y-86794819D02*
X121162738Y-86794819D01*
X121162738Y-86794819D02*
X121019881Y-86747200D01*
X121019881Y-86747200D02*
X120924643Y-86651961D01*
X120924643Y-86651961D02*
X120877024Y-86556723D01*
X120877024Y-86556723D02*
X120829405Y-86366247D01*
X120829405Y-86366247D02*
X120829405Y-86223390D01*
X120829405Y-86223390D02*
X120877024Y-86032914D01*
X120877024Y-86032914D02*
X120924643Y-85937676D01*
X120924643Y-85937676D02*
X121019881Y-85842438D01*
X121019881Y-85842438D02*
X121162738Y-85794819D01*
X121162738Y-85794819D02*
X121257976Y-85794819D01*
X121257976Y-85794819D02*
X121400833Y-85842438D01*
X121400833Y-85842438D02*
X121448452Y-85890057D01*
X121829405Y-85890057D02*
X121877024Y-85842438D01*
X121877024Y-85842438D02*
X121972262Y-85794819D01*
X121972262Y-85794819D02*
X122210357Y-85794819D01*
X122210357Y-85794819D02*
X122305595Y-85842438D01*
X122305595Y-85842438D02*
X122353214Y-85890057D01*
X122353214Y-85890057D02*
X122400833Y-85985295D01*
X122400833Y-85985295D02*
X122400833Y-86080533D01*
X122400833Y-86080533D02*
X122353214Y-86223390D01*
X122353214Y-86223390D02*
X121781786Y-86794819D01*
X121781786Y-86794819D02*
X122400833Y-86794819D01*
X123019881Y-85794819D02*
X123115119Y-85794819D01*
X123115119Y-85794819D02*
X123210357Y-85842438D01*
X123210357Y-85842438D02*
X123257976Y-85890057D01*
X123257976Y-85890057D02*
X123305595Y-85985295D01*
X123305595Y-85985295D02*
X123353214Y-86175771D01*
X123353214Y-86175771D02*
X123353214Y-86413866D01*
X123353214Y-86413866D02*
X123305595Y-86604342D01*
X123305595Y-86604342D02*
X123257976Y-86699580D01*
X123257976Y-86699580D02*
X123210357Y-86747200D01*
X123210357Y-86747200D02*
X123115119Y-86794819D01*
X123115119Y-86794819D02*
X123019881Y-86794819D01*
X123019881Y-86794819D02*
X122924643Y-86747200D01*
X122924643Y-86747200D02*
X122877024Y-86699580D01*
X122877024Y-86699580D02*
X122829405Y-86604342D01*
X122829405Y-86604342D02*
X122781786Y-86413866D01*
X122781786Y-86413866D02*
X122781786Y-86175771D01*
X122781786Y-86175771D02*
X122829405Y-85985295D01*
X122829405Y-85985295D02*
X122877024Y-85890057D01*
X122877024Y-85890057D02*
X122924643Y-85842438D01*
X122924643Y-85842438D02*
X123019881Y-85794819D01*
X124305595Y-86794819D02*
X123734167Y-86794819D01*
X124019881Y-86794819D02*
X124019881Y-85794819D01*
X124019881Y-85794819D02*
X123924643Y-85937676D01*
X123924643Y-85937676D02*
X123829405Y-86032914D01*
X123829405Y-86032914D02*
X123734167Y-86080533D01*
X126019580Y-85686547D02*
X126067200Y-85734166D01*
X126067200Y-85734166D02*
X126114819Y-85877023D01*
X126114819Y-85877023D02*
X126114819Y-85972261D01*
X126114819Y-85972261D02*
X126067200Y-86115118D01*
X126067200Y-86115118D02*
X125971961Y-86210356D01*
X125971961Y-86210356D02*
X125876723Y-86257975D01*
X125876723Y-86257975D02*
X125686247Y-86305594D01*
X125686247Y-86305594D02*
X125543390Y-86305594D01*
X125543390Y-86305594D02*
X125352914Y-86257975D01*
X125352914Y-86257975D02*
X125257676Y-86210356D01*
X125257676Y-86210356D02*
X125162438Y-86115118D01*
X125162438Y-86115118D02*
X125114819Y-85972261D01*
X125114819Y-85972261D02*
X125114819Y-85877023D01*
X125114819Y-85877023D02*
X125162438Y-85734166D01*
X125162438Y-85734166D02*
X125210057Y-85686547D01*
X125210057Y-85305594D02*
X125162438Y-85257975D01*
X125162438Y-85257975D02*
X125114819Y-85162737D01*
X125114819Y-85162737D02*
X125114819Y-84924642D01*
X125114819Y-84924642D02*
X125162438Y-84829404D01*
X125162438Y-84829404D02*
X125210057Y-84781785D01*
X125210057Y-84781785D02*
X125305295Y-84734166D01*
X125305295Y-84734166D02*
X125400533Y-84734166D01*
X125400533Y-84734166D02*
X125543390Y-84781785D01*
X125543390Y-84781785D02*
X126114819Y-85353213D01*
X126114819Y-85353213D02*
X126114819Y-84734166D01*
X125114819Y-84115118D02*
X125114819Y-84019880D01*
X125114819Y-84019880D02*
X125162438Y-83924642D01*
X125162438Y-83924642D02*
X125210057Y-83877023D01*
X125210057Y-83877023D02*
X125305295Y-83829404D01*
X125305295Y-83829404D02*
X125495771Y-83781785D01*
X125495771Y-83781785D02*
X125733866Y-83781785D01*
X125733866Y-83781785D02*
X125924342Y-83829404D01*
X125924342Y-83829404D02*
X126019580Y-83877023D01*
X126019580Y-83877023D02*
X126067200Y-83924642D01*
X126067200Y-83924642D02*
X126114819Y-84019880D01*
X126114819Y-84019880D02*
X126114819Y-84115118D01*
X126114819Y-84115118D02*
X126067200Y-84210356D01*
X126067200Y-84210356D02*
X126019580Y-84257975D01*
X126019580Y-84257975D02*
X125924342Y-84305594D01*
X125924342Y-84305594D02*
X125733866Y-84353213D01*
X125733866Y-84353213D02*
X125495771Y-84353213D01*
X125495771Y-84353213D02*
X125305295Y-84305594D01*
X125305295Y-84305594D02*
X125210057Y-84257975D01*
X125210057Y-84257975D02*
X125162438Y-84210356D01*
X125162438Y-84210356D02*
X125114819Y-84115118D01*
X125543390Y-83210356D02*
X125495771Y-83305594D01*
X125495771Y-83305594D02*
X125448152Y-83353213D01*
X125448152Y-83353213D02*
X125352914Y-83400832D01*
X125352914Y-83400832D02*
X125305295Y-83400832D01*
X125305295Y-83400832D02*
X125210057Y-83353213D01*
X125210057Y-83353213D02*
X125162438Y-83305594D01*
X125162438Y-83305594D02*
X125114819Y-83210356D01*
X125114819Y-83210356D02*
X125114819Y-83019880D01*
X125114819Y-83019880D02*
X125162438Y-82924642D01*
X125162438Y-82924642D02*
X125210057Y-82877023D01*
X125210057Y-82877023D02*
X125305295Y-82829404D01*
X125305295Y-82829404D02*
X125352914Y-82829404D01*
X125352914Y-82829404D02*
X125448152Y-82877023D01*
X125448152Y-82877023D02*
X125495771Y-82924642D01*
X125495771Y-82924642D02*
X125543390Y-83019880D01*
X125543390Y-83019880D02*
X125543390Y-83210356D01*
X125543390Y-83210356D02*
X125591009Y-83305594D01*
X125591009Y-83305594D02*
X125638628Y-83353213D01*
X125638628Y-83353213D02*
X125733866Y-83400832D01*
X125733866Y-83400832D02*
X125924342Y-83400832D01*
X125924342Y-83400832D02*
X126019580Y-83353213D01*
X126019580Y-83353213D02*
X126067200Y-83305594D01*
X126067200Y-83305594D02*
X126114819Y-83210356D01*
X126114819Y-83210356D02*
X126114819Y-83019880D01*
X126114819Y-83019880D02*
X126067200Y-82924642D01*
X126067200Y-82924642D02*
X126019580Y-82877023D01*
X126019580Y-82877023D02*
X125924342Y-82829404D01*
X125924342Y-82829404D02*
X125733866Y-82829404D01*
X125733866Y-82829404D02*
X125638628Y-82877023D01*
X125638628Y-82877023D02*
X125591009Y-82924642D01*
X125591009Y-82924642D02*
X125543390Y-83019880D01*
X123519580Y-85686547D02*
X123567200Y-85734166D01*
X123567200Y-85734166D02*
X123614819Y-85877023D01*
X123614819Y-85877023D02*
X123614819Y-85972261D01*
X123614819Y-85972261D02*
X123567200Y-86115118D01*
X123567200Y-86115118D02*
X123471961Y-86210356D01*
X123471961Y-86210356D02*
X123376723Y-86257975D01*
X123376723Y-86257975D02*
X123186247Y-86305594D01*
X123186247Y-86305594D02*
X123043390Y-86305594D01*
X123043390Y-86305594D02*
X122852914Y-86257975D01*
X122852914Y-86257975D02*
X122757676Y-86210356D01*
X122757676Y-86210356D02*
X122662438Y-86115118D01*
X122662438Y-86115118D02*
X122614819Y-85972261D01*
X122614819Y-85972261D02*
X122614819Y-85877023D01*
X122614819Y-85877023D02*
X122662438Y-85734166D01*
X122662438Y-85734166D02*
X122710057Y-85686547D01*
X122710057Y-85305594D02*
X122662438Y-85257975D01*
X122662438Y-85257975D02*
X122614819Y-85162737D01*
X122614819Y-85162737D02*
X122614819Y-84924642D01*
X122614819Y-84924642D02*
X122662438Y-84829404D01*
X122662438Y-84829404D02*
X122710057Y-84781785D01*
X122710057Y-84781785D02*
X122805295Y-84734166D01*
X122805295Y-84734166D02*
X122900533Y-84734166D01*
X122900533Y-84734166D02*
X123043390Y-84781785D01*
X123043390Y-84781785D02*
X123614819Y-85353213D01*
X123614819Y-85353213D02*
X123614819Y-84734166D01*
X122614819Y-84115118D02*
X122614819Y-84019880D01*
X122614819Y-84019880D02*
X122662438Y-83924642D01*
X122662438Y-83924642D02*
X122710057Y-83877023D01*
X122710057Y-83877023D02*
X122805295Y-83829404D01*
X122805295Y-83829404D02*
X122995771Y-83781785D01*
X122995771Y-83781785D02*
X123233866Y-83781785D01*
X123233866Y-83781785D02*
X123424342Y-83829404D01*
X123424342Y-83829404D02*
X123519580Y-83877023D01*
X123519580Y-83877023D02*
X123567200Y-83924642D01*
X123567200Y-83924642D02*
X123614819Y-84019880D01*
X123614819Y-84019880D02*
X123614819Y-84115118D01*
X123614819Y-84115118D02*
X123567200Y-84210356D01*
X123567200Y-84210356D02*
X123519580Y-84257975D01*
X123519580Y-84257975D02*
X123424342Y-84305594D01*
X123424342Y-84305594D02*
X123233866Y-84353213D01*
X123233866Y-84353213D02*
X122995771Y-84353213D01*
X122995771Y-84353213D02*
X122805295Y-84305594D01*
X122805295Y-84305594D02*
X122710057Y-84257975D01*
X122710057Y-84257975D02*
X122662438Y-84210356D01*
X122662438Y-84210356D02*
X122614819Y-84115118D01*
X122614819Y-83448451D02*
X122614819Y-82781785D01*
X122614819Y-82781785D02*
X123614819Y-83210356D01*
X104429580Y-90619047D02*
X104477200Y-90666666D01*
X104477200Y-90666666D02*
X104524819Y-90809523D01*
X104524819Y-90809523D02*
X104524819Y-90904761D01*
X104524819Y-90904761D02*
X104477200Y-91047618D01*
X104477200Y-91047618D02*
X104381961Y-91142856D01*
X104381961Y-91142856D02*
X104286723Y-91190475D01*
X104286723Y-91190475D02*
X104096247Y-91238094D01*
X104096247Y-91238094D02*
X103953390Y-91238094D01*
X103953390Y-91238094D02*
X103762914Y-91190475D01*
X103762914Y-91190475D02*
X103667676Y-91142856D01*
X103667676Y-91142856D02*
X103572438Y-91047618D01*
X103572438Y-91047618D02*
X103524819Y-90904761D01*
X103524819Y-90904761D02*
X103524819Y-90809523D01*
X103524819Y-90809523D02*
X103572438Y-90666666D01*
X103572438Y-90666666D02*
X103620057Y-90619047D01*
X103620057Y-90238094D02*
X103572438Y-90190475D01*
X103572438Y-90190475D02*
X103524819Y-90095237D01*
X103524819Y-90095237D02*
X103524819Y-89857142D01*
X103524819Y-89857142D02*
X103572438Y-89761904D01*
X103572438Y-89761904D02*
X103620057Y-89714285D01*
X103620057Y-89714285D02*
X103715295Y-89666666D01*
X103715295Y-89666666D02*
X103810533Y-89666666D01*
X103810533Y-89666666D02*
X103953390Y-89714285D01*
X103953390Y-89714285D02*
X104524819Y-90285713D01*
X104524819Y-90285713D02*
X104524819Y-89666666D01*
X103524819Y-89047618D02*
X103524819Y-88952380D01*
X103524819Y-88952380D02*
X103572438Y-88857142D01*
X103572438Y-88857142D02*
X103620057Y-88809523D01*
X103620057Y-88809523D02*
X103715295Y-88761904D01*
X103715295Y-88761904D02*
X103905771Y-88714285D01*
X103905771Y-88714285D02*
X104143866Y-88714285D01*
X104143866Y-88714285D02*
X104334342Y-88761904D01*
X104334342Y-88761904D02*
X104429580Y-88809523D01*
X104429580Y-88809523D02*
X104477200Y-88857142D01*
X104477200Y-88857142D02*
X104524819Y-88952380D01*
X104524819Y-88952380D02*
X104524819Y-89047618D01*
X104524819Y-89047618D02*
X104477200Y-89142856D01*
X104477200Y-89142856D02*
X104429580Y-89190475D01*
X104429580Y-89190475D02*
X104334342Y-89238094D01*
X104334342Y-89238094D02*
X104143866Y-89285713D01*
X104143866Y-89285713D02*
X103905771Y-89285713D01*
X103905771Y-89285713D02*
X103715295Y-89238094D01*
X103715295Y-89238094D02*
X103620057Y-89190475D01*
X103620057Y-89190475D02*
X103572438Y-89142856D01*
X103572438Y-89142856D02*
X103524819Y-89047618D01*
X103524819Y-87857142D02*
X103524819Y-88047618D01*
X103524819Y-88047618D02*
X103572438Y-88142856D01*
X103572438Y-88142856D02*
X103620057Y-88190475D01*
X103620057Y-88190475D02*
X103762914Y-88285713D01*
X103762914Y-88285713D02*
X103953390Y-88333332D01*
X103953390Y-88333332D02*
X104334342Y-88333332D01*
X104334342Y-88333332D02*
X104429580Y-88285713D01*
X104429580Y-88285713D02*
X104477200Y-88238094D01*
X104477200Y-88238094D02*
X104524819Y-88142856D01*
X104524819Y-88142856D02*
X104524819Y-87952380D01*
X104524819Y-87952380D02*
X104477200Y-87857142D01*
X104477200Y-87857142D02*
X104429580Y-87809523D01*
X104429580Y-87809523D02*
X104334342Y-87761904D01*
X104334342Y-87761904D02*
X104096247Y-87761904D01*
X104096247Y-87761904D02*
X104001009Y-87809523D01*
X104001009Y-87809523D02*
X103953390Y-87857142D01*
X103953390Y-87857142D02*
X103905771Y-87952380D01*
X103905771Y-87952380D02*
X103905771Y-88142856D01*
X103905771Y-88142856D02*
X103953390Y-88238094D01*
X103953390Y-88238094D02*
X104001009Y-88285713D01*
X104001009Y-88285713D02*
X104096247Y-88333332D01*
X116880952Y-97789580D02*
X116833333Y-97837200D01*
X116833333Y-97837200D02*
X116690476Y-97884819D01*
X116690476Y-97884819D02*
X116595238Y-97884819D01*
X116595238Y-97884819D02*
X116452381Y-97837200D01*
X116452381Y-97837200D02*
X116357143Y-97741961D01*
X116357143Y-97741961D02*
X116309524Y-97646723D01*
X116309524Y-97646723D02*
X116261905Y-97456247D01*
X116261905Y-97456247D02*
X116261905Y-97313390D01*
X116261905Y-97313390D02*
X116309524Y-97122914D01*
X116309524Y-97122914D02*
X116357143Y-97027676D01*
X116357143Y-97027676D02*
X116452381Y-96932438D01*
X116452381Y-96932438D02*
X116595238Y-96884819D01*
X116595238Y-96884819D02*
X116690476Y-96884819D01*
X116690476Y-96884819D02*
X116833333Y-96932438D01*
X116833333Y-96932438D02*
X116880952Y-96980057D01*
X117261905Y-96980057D02*
X117309524Y-96932438D01*
X117309524Y-96932438D02*
X117404762Y-96884819D01*
X117404762Y-96884819D02*
X117642857Y-96884819D01*
X117642857Y-96884819D02*
X117738095Y-96932438D01*
X117738095Y-96932438D02*
X117785714Y-96980057D01*
X117785714Y-96980057D02*
X117833333Y-97075295D01*
X117833333Y-97075295D02*
X117833333Y-97170533D01*
X117833333Y-97170533D02*
X117785714Y-97313390D01*
X117785714Y-97313390D02*
X117214286Y-97884819D01*
X117214286Y-97884819D02*
X117833333Y-97884819D01*
X118452381Y-96884819D02*
X118547619Y-96884819D01*
X118547619Y-96884819D02*
X118642857Y-96932438D01*
X118642857Y-96932438D02*
X118690476Y-96980057D01*
X118690476Y-96980057D02*
X118738095Y-97075295D01*
X118738095Y-97075295D02*
X118785714Y-97265771D01*
X118785714Y-97265771D02*
X118785714Y-97503866D01*
X118785714Y-97503866D02*
X118738095Y-97694342D01*
X118738095Y-97694342D02*
X118690476Y-97789580D01*
X118690476Y-97789580D02*
X118642857Y-97837200D01*
X118642857Y-97837200D02*
X118547619Y-97884819D01*
X118547619Y-97884819D02*
X118452381Y-97884819D01*
X118452381Y-97884819D02*
X118357143Y-97837200D01*
X118357143Y-97837200D02*
X118309524Y-97789580D01*
X118309524Y-97789580D02*
X118261905Y-97694342D01*
X118261905Y-97694342D02*
X118214286Y-97503866D01*
X118214286Y-97503866D02*
X118214286Y-97265771D01*
X118214286Y-97265771D02*
X118261905Y-97075295D01*
X118261905Y-97075295D02*
X118309524Y-96980057D01*
X118309524Y-96980057D02*
X118357143Y-96932438D01*
X118357143Y-96932438D02*
X118452381Y-96884819D01*
X119690476Y-96884819D02*
X119214286Y-96884819D01*
X119214286Y-96884819D02*
X119166667Y-97361009D01*
X119166667Y-97361009D02*
X119214286Y-97313390D01*
X119214286Y-97313390D02*
X119309524Y-97265771D01*
X119309524Y-97265771D02*
X119547619Y-97265771D01*
X119547619Y-97265771D02*
X119642857Y-97313390D01*
X119642857Y-97313390D02*
X119690476Y-97361009D01*
X119690476Y-97361009D02*
X119738095Y-97456247D01*
X119738095Y-97456247D02*
X119738095Y-97694342D01*
X119738095Y-97694342D02*
X119690476Y-97789580D01*
X119690476Y-97789580D02*
X119642857Y-97837200D01*
X119642857Y-97837200D02*
X119547619Y-97884819D01*
X119547619Y-97884819D02*
X119309524Y-97884819D01*
X119309524Y-97884819D02*
X119214286Y-97837200D01*
X119214286Y-97837200D02*
X119166667Y-97789580D01*
X116880952Y-94019580D02*
X116833333Y-94067200D01*
X116833333Y-94067200D02*
X116690476Y-94114819D01*
X116690476Y-94114819D02*
X116595238Y-94114819D01*
X116595238Y-94114819D02*
X116452381Y-94067200D01*
X116452381Y-94067200D02*
X116357143Y-93971961D01*
X116357143Y-93971961D02*
X116309524Y-93876723D01*
X116309524Y-93876723D02*
X116261905Y-93686247D01*
X116261905Y-93686247D02*
X116261905Y-93543390D01*
X116261905Y-93543390D02*
X116309524Y-93352914D01*
X116309524Y-93352914D02*
X116357143Y-93257676D01*
X116357143Y-93257676D02*
X116452381Y-93162438D01*
X116452381Y-93162438D02*
X116595238Y-93114819D01*
X116595238Y-93114819D02*
X116690476Y-93114819D01*
X116690476Y-93114819D02*
X116833333Y-93162438D01*
X116833333Y-93162438D02*
X116880952Y-93210057D01*
X117261905Y-93210057D02*
X117309524Y-93162438D01*
X117309524Y-93162438D02*
X117404762Y-93114819D01*
X117404762Y-93114819D02*
X117642857Y-93114819D01*
X117642857Y-93114819D02*
X117738095Y-93162438D01*
X117738095Y-93162438D02*
X117785714Y-93210057D01*
X117785714Y-93210057D02*
X117833333Y-93305295D01*
X117833333Y-93305295D02*
X117833333Y-93400533D01*
X117833333Y-93400533D02*
X117785714Y-93543390D01*
X117785714Y-93543390D02*
X117214286Y-94114819D01*
X117214286Y-94114819D02*
X117833333Y-94114819D01*
X118452381Y-93114819D02*
X118547619Y-93114819D01*
X118547619Y-93114819D02*
X118642857Y-93162438D01*
X118642857Y-93162438D02*
X118690476Y-93210057D01*
X118690476Y-93210057D02*
X118738095Y-93305295D01*
X118738095Y-93305295D02*
X118785714Y-93495771D01*
X118785714Y-93495771D02*
X118785714Y-93733866D01*
X118785714Y-93733866D02*
X118738095Y-93924342D01*
X118738095Y-93924342D02*
X118690476Y-94019580D01*
X118690476Y-94019580D02*
X118642857Y-94067200D01*
X118642857Y-94067200D02*
X118547619Y-94114819D01*
X118547619Y-94114819D02*
X118452381Y-94114819D01*
X118452381Y-94114819D02*
X118357143Y-94067200D01*
X118357143Y-94067200D02*
X118309524Y-94019580D01*
X118309524Y-94019580D02*
X118261905Y-93924342D01*
X118261905Y-93924342D02*
X118214286Y-93733866D01*
X118214286Y-93733866D02*
X118214286Y-93495771D01*
X118214286Y-93495771D02*
X118261905Y-93305295D01*
X118261905Y-93305295D02*
X118309524Y-93210057D01*
X118309524Y-93210057D02*
X118357143Y-93162438D01*
X118357143Y-93162438D02*
X118452381Y-93114819D01*
X119642857Y-93448152D02*
X119642857Y-94114819D01*
X119404762Y-93067200D02*
X119166667Y-93781485D01*
X119166667Y-93781485D02*
X119785714Y-93781485D01*
X111380952Y-79699580D02*
X111333333Y-79747200D01*
X111333333Y-79747200D02*
X111190476Y-79794819D01*
X111190476Y-79794819D02*
X111095238Y-79794819D01*
X111095238Y-79794819D02*
X110952381Y-79747200D01*
X110952381Y-79747200D02*
X110857143Y-79651961D01*
X110857143Y-79651961D02*
X110809524Y-79556723D01*
X110809524Y-79556723D02*
X110761905Y-79366247D01*
X110761905Y-79366247D02*
X110761905Y-79223390D01*
X110761905Y-79223390D02*
X110809524Y-79032914D01*
X110809524Y-79032914D02*
X110857143Y-78937676D01*
X110857143Y-78937676D02*
X110952381Y-78842438D01*
X110952381Y-78842438D02*
X111095238Y-78794819D01*
X111095238Y-78794819D02*
X111190476Y-78794819D01*
X111190476Y-78794819D02*
X111333333Y-78842438D01*
X111333333Y-78842438D02*
X111380952Y-78890057D01*
X111761905Y-78890057D02*
X111809524Y-78842438D01*
X111809524Y-78842438D02*
X111904762Y-78794819D01*
X111904762Y-78794819D02*
X112142857Y-78794819D01*
X112142857Y-78794819D02*
X112238095Y-78842438D01*
X112238095Y-78842438D02*
X112285714Y-78890057D01*
X112285714Y-78890057D02*
X112333333Y-78985295D01*
X112333333Y-78985295D02*
X112333333Y-79080533D01*
X112333333Y-79080533D02*
X112285714Y-79223390D01*
X112285714Y-79223390D02*
X111714286Y-79794819D01*
X111714286Y-79794819D02*
X112333333Y-79794819D01*
X112952381Y-78794819D02*
X113047619Y-78794819D01*
X113047619Y-78794819D02*
X113142857Y-78842438D01*
X113142857Y-78842438D02*
X113190476Y-78890057D01*
X113190476Y-78890057D02*
X113238095Y-78985295D01*
X113238095Y-78985295D02*
X113285714Y-79175771D01*
X113285714Y-79175771D02*
X113285714Y-79413866D01*
X113285714Y-79413866D02*
X113238095Y-79604342D01*
X113238095Y-79604342D02*
X113190476Y-79699580D01*
X113190476Y-79699580D02*
X113142857Y-79747200D01*
X113142857Y-79747200D02*
X113047619Y-79794819D01*
X113047619Y-79794819D02*
X112952381Y-79794819D01*
X112952381Y-79794819D02*
X112857143Y-79747200D01*
X112857143Y-79747200D02*
X112809524Y-79699580D01*
X112809524Y-79699580D02*
X112761905Y-79604342D01*
X112761905Y-79604342D02*
X112714286Y-79413866D01*
X112714286Y-79413866D02*
X112714286Y-79175771D01*
X112714286Y-79175771D02*
X112761905Y-78985295D01*
X112761905Y-78985295D02*
X112809524Y-78890057D01*
X112809524Y-78890057D02*
X112857143Y-78842438D01*
X112857143Y-78842438D02*
X112952381Y-78794819D01*
X113619048Y-78794819D02*
X114238095Y-78794819D01*
X114238095Y-78794819D02*
X113904762Y-79175771D01*
X113904762Y-79175771D02*
X114047619Y-79175771D01*
X114047619Y-79175771D02*
X114142857Y-79223390D01*
X114142857Y-79223390D02*
X114190476Y-79271009D01*
X114190476Y-79271009D02*
X114238095Y-79366247D01*
X114238095Y-79366247D02*
X114238095Y-79604342D01*
X114238095Y-79604342D02*
X114190476Y-79699580D01*
X114190476Y-79699580D02*
X114142857Y-79747200D01*
X114142857Y-79747200D02*
X114047619Y-79794819D01*
X114047619Y-79794819D02*
X113761905Y-79794819D01*
X113761905Y-79794819D02*
X113666667Y-79747200D01*
X113666667Y-79747200D02*
X113619048Y-79699580D01*
X107699580Y-90619047D02*
X107747200Y-90666666D01*
X107747200Y-90666666D02*
X107794819Y-90809523D01*
X107794819Y-90809523D02*
X107794819Y-90904761D01*
X107794819Y-90904761D02*
X107747200Y-91047618D01*
X107747200Y-91047618D02*
X107651961Y-91142856D01*
X107651961Y-91142856D02*
X107556723Y-91190475D01*
X107556723Y-91190475D02*
X107366247Y-91238094D01*
X107366247Y-91238094D02*
X107223390Y-91238094D01*
X107223390Y-91238094D02*
X107032914Y-91190475D01*
X107032914Y-91190475D02*
X106937676Y-91142856D01*
X106937676Y-91142856D02*
X106842438Y-91047618D01*
X106842438Y-91047618D02*
X106794819Y-90904761D01*
X106794819Y-90904761D02*
X106794819Y-90809523D01*
X106794819Y-90809523D02*
X106842438Y-90666666D01*
X106842438Y-90666666D02*
X106890057Y-90619047D01*
X106890057Y-90238094D02*
X106842438Y-90190475D01*
X106842438Y-90190475D02*
X106794819Y-90095237D01*
X106794819Y-90095237D02*
X106794819Y-89857142D01*
X106794819Y-89857142D02*
X106842438Y-89761904D01*
X106842438Y-89761904D02*
X106890057Y-89714285D01*
X106890057Y-89714285D02*
X106985295Y-89666666D01*
X106985295Y-89666666D02*
X107080533Y-89666666D01*
X107080533Y-89666666D02*
X107223390Y-89714285D01*
X107223390Y-89714285D02*
X107794819Y-90285713D01*
X107794819Y-90285713D02*
X107794819Y-89666666D01*
X106794819Y-89047618D02*
X106794819Y-88952380D01*
X106794819Y-88952380D02*
X106842438Y-88857142D01*
X106842438Y-88857142D02*
X106890057Y-88809523D01*
X106890057Y-88809523D02*
X106985295Y-88761904D01*
X106985295Y-88761904D02*
X107175771Y-88714285D01*
X107175771Y-88714285D02*
X107413866Y-88714285D01*
X107413866Y-88714285D02*
X107604342Y-88761904D01*
X107604342Y-88761904D02*
X107699580Y-88809523D01*
X107699580Y-88809523D02*
X107747200Y-88857142D01*
X107747200Y-88857142D02*
X107794819Y-88952380D01*
X107794819Y-88952380D02*
X107794819Y-89047618D01*
X107794819Y-89047618D02*
X107747200Y-89142856D01*
X107747200Y-89142856D02*
X107699580Y-89190475D01*
X107699580Y-89190475D02*
X107604342Y-89238094D01*
X107604342Y-89238094D02*
X107413866Y-89285713D01*
X107413866Y-89285713D02*
X107175771Y-89285713D01*
X107175771Y-89285713D02*
X106985295Y-89238094D01*
X106985295Y-89238094D02*
X106890057Y-89190475D01*
X106890057Y-89190475D02*
X106842438Y-89142856D01*
X106842438Y-89142856D02*
X106794819Y-89047618D01*
X106890057Y-88333332D02*
X106842438Y-88285713D01*
X106842438Y-88285713D02*
X106794819Y-88190475D01*
X106794819Y-88190475D02*
X106794819Y-87952380D01*
X106794819Y-87952380D02*
X106842438Y-87857142D01*
X106842438Y-87857142D02*
X106890057Y-87809523D01*
X106890057Y-87809523D02*
X106985295Y-87761904D01*
X106985295Y-87761904D02*
X107080533Y-87761904D01*
X107080533Y-87761904D02*
X107223390Y-87809523D01*
X107223390Y-87809523D02*
X107794819Y-88380951D01*
X107794819Y-88380951D02*
X107794819Y-87761904D01*
D11*
%TO.C,D505*%
X101100000Y-87500000D02*
X101100000Y-86140000D01*
X101900000Y-87500000D02*
X101900000Y-86140000D01*
X101900000Y-86140000D02*
X101100000Y-86140000D01*
%TO.C,D504*%
X101900000Y-89500000D02*
X101900000Y-90860000D01*
X101100000Y-89500000D02*
X101100000Y-90860000D01*
X101100000Y-90860000D02*
X101900000Y-90860000D01*
%TO.C,J301*%
X131170000Y-87730000D02*
X131170000Y-85130000D01*
X133830000Y-85130000D02*
X131170000Y-85130000D01*
X133830000Y-87730000D02*
X131170000Y-87730000D01*
X133830000Y-87730000D02*
X133830000Y-85130000D01*
X133830000Y-89000000D02*
X133830000Y-90330000D01*
X133830000Y-90330000D02*
X132500000Y-90330000D01*
%TO.C,U401*%
X104000000Y-92940000D02*
X103200000Y-92940000D01*
X104000000Y-92940000D02*
X104800000Y-92940000D01*
X104000000Y-96060000D02*
X103200000Y-96060000D01*
X104000000Y-96060000D02*
X104800000Y-96060000D01*
X102700000Y-92990000D02*
X102460000Y-92660000D01*
X102940000Y-92660000D01*
X102700000Y-92990000D01*
G36*
X102700000Y-92990000D02*
G01*
X102460000Y-92660000D01*
X102940000Y-92660000D01*
X102700000Y-92990000D01*
G37*
%TO.C,U201*%
X118910000Y-89835000D02*
X118910000Y-90070000D01*
X118910000Y-83090000D02*
X118910000Y-83565000D01*
X118435000Y-90310000D02*
X118610000Y-90310000D01*
X118435000Y-83090000D02*
X118910000Y-83090000D01*
X112165000Y-90310000D02*
X111690000Y-90310000D01*
X112165000Y-83090000D02*
X111690000Y-83090000D01*
X111690000Y-90310000D02*
X111690000Y-89835000D01*
X111690000Y-83090000D02*
X111690000Y-83565000D01*
X119150000Y-90640000D02*
X118670000Y-90640000D01*
X118910000Y-90310000D01*
X119150000Y-90640000D01*
G36*
X119150000Y-90640000D02*
G01*
X118670000Y-90640000D01*
X118910000Y-90310000D01*
X119150000Y-90640000D01*
G37*
%TO.C,J504*%
X109630000Y-98330000D02*
X109630000Y-97000000D01*
X110960000Y-98330000D02*
X109630000Y-98330000D01*
X112230000Y-98330000D02*
X114830000Y-98330000D01*
X112230000Y-98330000D02*
X112230000Y-95730000D01*
X114830000Y-98330000D02*
X114830000Y-93130000D01*
X109630000Y-95730000D02*
X109630000Y-93130000D01*
X112230000Y-95730000D02*
X109630000Y-95730000D01*
X109630000Y-93130000D02*
X114830000Y-93130000D01*
%TO.C,J503*%
X148360000Y-80190000D02*
X136640000Y-80190000D01*
X136640000Y-80190000D02*
X136640000Y-81610000D01*
X141140000Y-81610000D02*
X141140000Y-84000000D01*
X136640000Y-81610000D02*
X141140000Y-81610000D01*
X147750000Y-82500000D02*
X142250000Y-82500000D01*
X142250000Y-82500000D02*
X142250000Y-83000000D01*
X147750000Y-83000000D02*
X147750000Y-82500000D01*
X142250000Y-83000000D02*
X147750000Y-83000000D01*
X148360000Y-84000000D02*
X148360000Y-80190000D01*
X148360000Y-84000000D02*
X148360000Y-87810000D01*
X136950000Y-84950000D02*
X137550000Y-85250000D01*
X147750000Y-85000000D02*
X142250000Y-85000000D01*
X142250000Y-85000000D02*
X142250000Y-85500000D01*
X137550000Y-85250000D02*
X136950000Y-85550000D01*
X147750000Y-85500000D02*
X147750000Y-85000000D01*
X142250000Y-85500000D02*
X147750000Y-85500000D01*
X136950000Y-85550000D02*
X136950000Y-84950000D01*
X141140000Y-86390000D02*
X141140000Y-84000000D01*
X136640000Y-86390000D02*
X141140000Y-86390000D01*
X148360000Y-87810000D02*
X136640000Y-87810000D01*
X136640000Y-87810000D02*
X136640000Y-86390000D01*
%TO.C,J502*%
X148360000Y-89190000D02*
X136640000Y-89190000D01*
X136640000Y-89190000D02*
X136640000Y-90610000D01*
X141140000Y-90610000D02*
X141140000Y-93000000D01*
X136640000Y-90610000D02*
X141140000Y-90610000D01*
X147750000Y-91500000D02*
X142250000Y-91500000D01*
X142250000Y-91500000D02*
X142250000Y-92000000D01*
X147750000Y-92000000D02*
X147750000Y-91500000D01*
X142250000Y-92000000D02*
X147750000Y-92000000D01*
X148360000Y-93000000D02*
X148360000Y-89190000D01*
X148360000Y-93000000D02*
X148360000Y-96810000D01*
X136950000Y-93950000D02*
X137550000Y-94250000D01*
X147750000Y-94000000D02*
X142250000Y-94000000D01*
X142250000Y-94000000D02*
X142250000Y-94500000D01*
X137550000Y-94250000D02*
X136950000Y-94550000D01*
X147750000Y-94500000D02*
X147750000Y-94000000D01*
X142250000Y-94500000D02*
X147750000Y-94500000D01*
X136950000Y-94550000D02*
X136950000Y-93950000D01*
X141140000Y-95390000D02*
X141140000Y-93000000D01*
X136640000Y-95390000D02*
X141140000Y-95390000D01*
X148360000Y-96810000D02*
X136640000Y-96810000D01*
X136640000Y-96810000D02*
X136640000Y-95390000D01*
%TO.C,J501*%
X98600000Y-92860000D02*
X98600000Y-92400000D01*
X98600000Y-92860000D02*
X96500000Y-92860000D01*
X98120000Y-84140000D02*
X96500000Y-84140000D01*
X96500000Y-93900000D02*
X96500000Y-92860000D01*
X96500000Y-84140000D02*
X96500000Y-83100000D01*
X92715000Y-94610000D02*
X92445000Y-94610000D01*
X92715000Y-82390000D02*
X92445000Y-82390000D01*
%TO.C,D503*%
X117100000Y-98500000D02*
X117100000Y-97140000D01*
X117900000Y-98500000D02*
X117900000Y-97140000D01*
X117900000Y-97140000D02*
X117100000Y-97140000D01*
%TO.C,D502*%
X109920000Y-92400000D02*
X108560000Y-92400000D01*
X109920000Y-91600000D02*
X108560000Y-91600000D01*
X108560000Y-91600000D02*
X108560000Y-92400000D01*
%TO.C,D501*%
X113000000Y-91600000D02*
X114360000Y-91600000D01*
X113000000Y-92400000D02*
X114360000Y-92400000D01*
X114360000Y-92400000D02*
X114360000Y-91600000D01*
%TO.C,C402*%
X107360000Y-93951665D02*
X107360000Y-94183335D01*
X106640000Y-93951665D02*
X106640000Y-94183335D01*
%TO.C,C401*%
X101292500Y-95115835D02*
X101292500Y-94884165D01*
X100572500Y-95115835D02*
X100572500Y-94884165D01*
%TO.C,C201*%
X122451665Y-87140000D02*
X122683335Y-87140000D01*
X122451665Y-87860000D02*
X122683335Y-87860000D01*
%TO.C,C208*%
X124860000Y-84451665D02*
X124860000Y-84683335D01*
X124140000Y-84451665D02*
X124140000Y-84683335D01*
%TO.C,C207*%
X122360000Y-84451665D02*
X122360000Y-84683335D01*
X121640000Y-84451665D02*
X121640000Y-84683335D01*
%TO.C,C206*%
X104990000Y-89646267D02*
X104990000Y-89353733D01*
X106010000Y-89646267D02*
X106010000Y-89353733D01*
%TO.C,C205*%
X118146267Y-96510000D02*
X117853733Y-96510000D01*
X118146267Y-95490000D02*
X117853733Y-95490000D01*
%TO.C,C204*%
X118115835Y-92860000D02*
X117884165Y-92860000D01*
X118115835Y-92140000D02*
X117884165Y-92140000D01*
%TO.C,C203*%
X112384165Y-80140000D02*
X112615835Y-80140000D01*
X112384165Y-80860000D02*
X112615835Y-80860000D01*
%TO.C,C202*%
X108140000Y-89615835D02*
X108140000Y-89384165D01*
X108860000Y-89615835D02*
X108860000Y-89384165D01*
%TD*%
M02*
